<?xml version="1.0" encoding="utf-8" standalone="no"?>
<!DOCTYPE svg PUBLIC "-//W3C//DTD SVG 1.1//EN"
  "http://www.w3.org/Graphics/SVG/1.1/DTD/svg11.dtd">
<!-- Created with matplotlib (https://matplotlib.org/) -->
<svg height="360pt" version="1.1" viewBox="0 0 1008 360" width="1008pt" xmlns="http://www.w3.org/2000/svg" xmlns:xlink="http://www.w3.org/1999/xlink">
 <defs>
  <style type="text/css">
*{stroke-linecap:butt;stroke-linejoin:round;}
  </style>
 </defs>
 <g id="figure_1">
  <g id="patch_1">
   <path d="M 0 360 
L 1008 360 
L 1008 0 
L 0 0 
z
" style="fill:#ffffff;"/>
  </g>
  <g id="axes_1">
   <g id="patch_2">
    <path d="M 70.56 342 
L 574.56 342 
L 574.56 18 
L 70.56 18 
z
" style="fill:#ffffff;"/>
   </g>
   <g id="matplotlib.axis_1">
    <g id="xtick_1">
     <g id="line2d_1">
      <defs>
       <path d="M 0 0 
L 0 3.5 
" id="ma1248cdf79" style="stroke:#000000;stroke-width:0.8;"/>
      </defs>
      <g>
       <use style="stroke:#000000;stroke-width:0.8;" x="70.56" xlink:href="#ma1248cdf79" y="342"/>
      </g>
     </g>
     <g id="text_1">
      <!-- 0 -->
      <defs>
       <path d="M 31.78125 66.40625 
Q 24.171875 66.40625 20.328125 58.90625 
Q 16.5 51.421875 16.5 36.375 
Q 16.5 21.390625 20.328125 13.890625 
Q 24.171875 6.390625 31.78125 6.390625 
Q 39.453125 6.390625 43.28125 13.890625 
Q 47.125 21.390625 47.125 36.375 
Q 47.125 51.421875 43.28125 58.90625 
Q 39.453125 66.40625 31.78125 66.40625 
z
M 31.78125 74.21875 
Q 44.046875 74.21875 50.515625 64.515625 
Q 56.984375 54.828125 56.984375 36.375 
Q 56.984375 17.96875 50.515625 8.265625 
Q 44.046875 -1.421875 31.78125 -1.421875 
Q 19.53125 -1.421875 13.0625 8.265625 
Q 6.59375 17.96875 6.59375 36.375 
Q 6.59375 54.828125 13.0625 64.515625 
Q 19.53125 74.21875 31.78125 74.21875 
z
" id="DejaVuSans-48"/>
      </defs>
      <g transform="translate(67.37875 356.598437)scale(0.1 -0.1)">
       <use xlink:href="#DejaVuSans-48"/>
      </g>
     </g>
    </g>
    <g id="xtick_2">
     <g id="line2d_2">
      <g>
       <use style="stroke:#000000;stroke-width:0.8;" x="133.56" xlink:href="#ma1248cdf79" y="342"/>
      </g>
     </g>
     <g id="text_2">
      <!-- 25 -->
      <defs>
       <path d="M 19.1875 8.296875 
L 53.609375 8.296875 
L 53.609375 0 
L 7.328125 0 
L 7.328125 8.296875 
Q 12.9375 14.109375 22.625 23.890625 
Q 32.328125 33.6875 34.8125 36.53125 
Q 39.546875 41.84375 41.421875 45.53125 
Q 43.3125 49.21875 43.3125 52.78125 
Q 43.3125 58.59375 39.234375 62.25 
Q 35.15625 65.921875 28.609375 65.921875 
Q 23.96875 65.921875 18.8125 64.3125 
Q 13.671875 62.703125 7.8125 59.421875 
L 7.8125 69.390625 
Q 13.765625 71.78125 18.9375 73 
Q 24.125 74.21875 28.421875 74.21875 
Q 39.75 74.21875 46.484375 68.546875 
Q 53.21875 62.890625 53.21875 53.421875 
Q 53.21875 48.921875 51.53125 44.890625 
Q 49.859375 40.875 45.40625 35.40625 
Q 44.1875 33.984375 37.640625 27.21875 
Q 31.109375 20.453125 19.1875 8.296875 
z
" id="DejaVuSans-50"/>
       <path d="M 10.796875 72.90625 
L 49.515625 72.90625 
L 49.515625 64.59375 
L 19.828125 64.59375 
L 19.828125 46.734375 
Q 21.96875 47.46875 24.109375 47.828125 
Q 26.265625 48.1875 28.421875 48.1875 
Q 40.625 48.1875 47.75 41.5 
Q 54.890625 34.8125 54.890625 23.390625 
Q 54.890625 11.625 47.5625 5.09375 
Q 40.234375 -1.421875 26.90625 -1.421875 
Q 22.3125 -1.421875 17.546875 -0.640625 
Q 12.796875 0.140625 7.71875 1.703125 
L 7.71875 11.625 
Q 12.109375 9.234375 16.796875 8.0625 
Q 21.484375 6.890625 26.703125 6.890625 
Q 35.15625 6.890625 40.078125 11.328125 
Q 45.015625 15.765625 45.015625 23.390625 
Q 45.015625 31 40.078125 35.4375 
Q 35.15625 39.890625 26.703125 39.890625 
Q 22.75 39.890625 18.8125 39.015625 
Q 14.890625 38.140625 10.796875 36.28125 
z
" id="DejaVuSans-53"/>
      </defs>
      <g transform="translate(127.1975 356.598437)scale(0.1 -0.1)">
       <use xlink:href="#DejaVuSans-50"/>
       <use x="63.623047" xlink:href="#DejaVuSans-53"/>
      </g>
     </g>
    </g>
    <g id="xtick_3">
     <g id="line2d_3">
      <g>
       <use style="stroke:#000000;stroke-width:0.8;" x="196.56" xlink:href="#ma1248cdf79" y="342"/>
      </g>
     </g>
     <g id="text_3">
      <!-- 50 -->
      <g transform="translate(190.1975 356.598437)scale(0.1 -0.1)">
       <use xlink:href="#DejaVuSans-53"/>
       <use x="63.623047" xlink:href="#DejaVuSans-48"/>
      </g>
     </g>
    </g>
    <g id="xtick_4">
     <g id="line2d_4">
      <g>
       <use style="stroke:#000000;stroke-width:0.8;" x="259.56" xlink:href="#ma1248cdf79" y="342"/>
      </g>
     </g>
     <g id="text_4">
      <!-- 75 -->
      <defs>
       <path d="M 8.203125 72.90625 
L 55.078125 72.90625 
L 55.078125 68.703125 
L 28.609375 0 
L 18.3125 0 
L 43.21875 64.59375 
L 8.203125 64.59375 
z
" id="DejaVuSans-55"/>
      </defs>
      <g transform="translate(253.1975 356.598437)scale(0.1 -0.1)">
       <use xlink:href="#DejaVuSans-55"/>
       <use x="63.623047" xlink:href="#DejaVuSans-53"/>
      </g>
     </g>
    </g>
    <g id="xtick_5">
     <g id="line2d_5">
      <g>
       <use style="stroke:#000000;stroke-width:0.8;" x="322.56" xlink:href="#ma1248cdf79" y="342"/>
      </g>
     </g>
     <g id="text_5">
      <!-- 100 -->
      <defs>
       <path d="M 12.40625 8.296875 
L 28.515625 8.296875 
L 28.515625 63.921875 
L 10.984375 60.40625 
L 10.984375 69.390625 
L 28.421875 72.90625 
L 38.28125 72.90625 
L 38.28125 8.296875 
L 54.390625 8.296875 
L 54.390625 0 
L 12.40625 0 
z
" id="DejaVuSans-49"/>
      </defs>
      <g transform="translate(313.01625 356.598437)scale(0.1 -0.1)">
       <use xlink:href="#DejaVuSans-49"/>
       <use x="63.623047" xlink:href="#DejaVuSans-48"/>
       <use x="127.246094" xlink:href="#DejaVuSans-48"/>
      </g>
     </g>
    </g>
    <g id="xtick_6">
     <g id="line2d_6">
      <g>
       <use style="stroke:#000000;stroke-width:0.8;" x="385.56" xlink:href="#ma1248cdf79" y="342"/>
      </g>
     </g>
     <g id="text_6">
      <!-- 125 -->
      <g transform="translate(376.01625 356.598437)scale(0.1 -0.1)">
       <use xlink:href="#DejaVuSans-49"/>
       <use x="63.623047" xlink:href="#DejaVuSans-50"/>
       <use x="127.246094" xlink:href="#DejaVuSans-53"/>
      </g>
     </g>
    </g>
    <g id="xtick_7">
     <g id="line2d_7">
      <g>
       <use style="stroke:#000000;stroke-width:0.8;" x="448.56" xlink:href="#ma1248cdf79" y="342"/>
      </g>
     </g>
     <g id="text_7">
      <!-- 150 -->
      <g transform="translate(439.01625 356.598437)scale(0.1 -0.1)">
       <use xlink:href="#DejaVuSans-49"/>
       <use x="63.623047" xlink:href="#DejaVuSans-53"/>
       <use x="127.246094" xlink:href="#DejaVuSans-48"/>
      </g>
     </g>
    </g>
    <g id="xtick_8">
     <g id="line2d_8">
      <g>
       <use style="stroke:#000000;stroke-width:0.8;" x="511.56" xlink:href="#ma1248cdf79" y="342"/>
      </g>
     </g>
     <g id="text_8">
      <!-- 175 -->
      <g transform="translate(502.01625 356.598437)scale(0.1 -0.1)">
       <use xlink:href="#DejaVuSans-49"/>
       <use x="63.623047" xlink:href="#DejaVuSans-55"/>
       <use x="127.246094" xlink:href="#DejaVuSans-53"/>
      </g>
     </g>
    </g>
    <g id="xtick_9">
     <g id="line2d_9">
      <g>
       <use style="stroke:#000000;stroke-width:0.8;" x="574.56" xlink:href="#ma1248cdf79" y="342"/>
      </g>
     </g>
     <g id="text_9">
      <!-- 200 -->
      <g transform="translate(565.01625 356.598437)scale(0.1 -0.1)">
       <use xlink:href="#DejaVuSans-50"/>
       <use x="63.623047" xlink:href="#DejaVuSans-48"/>
       <use x="127.246094" xlink:href="#DejaVuSans-48"/>
      </g>
     </g>
    </g>
   </g>
   <g id="matplotlib.axis_2">
    <g id="ytick_1">
     <g id="line2d_10">
      <defs>
       <path d="M 0 0 
L -3.5 0 
" id="m78f4935ebc" style="stroke:#000000;stroke-width:0.8;"/>
      </defs>
      <g>
       <use style="stroke:#000000;stroke-width:0.8;" x="70.56" xlink:href="#m78f4935ebc" y="342"/>
      </g>
     </g>
     <g id="text_10">
      <!-- 0 -->
      <g transform="translate(57.1975 345.799219)scale(0.1 -0.1)">
       <use xlink:href="#DejaVuSans-48"/>
      </g>
     </g>
    </g>
    <g id="ytick_2">
     <g id="line2d_11">
      <g>
       <use style="stroke:#000000;stroke-width:0.8;" x="70.56" xlink:href="#m78f4935ebc" y="289.402597"/>
      </g>
     </g>
     <g id="text_11">
      <!-- 10 -->
      <g transform="translate(50.835 293.201816)scale(0.1 -0.1)">
       <use xlink:href="#DejaVuSans-49"/>
       <use x="63.623047" xlink:href="#DejaVuSans-48"/>
      </g>
     </g>
    </g>
    <g id="ytick_3">
     <g id="line2d_12">
      <g>
       <use style="stroke:#000000;stroke-width:0.8;" x="70.56" xlink:href="#m78f4935ebc" y="236.805195"/>
      </g>
     </g>
     <g id="text_12">
      <!-- 20 -->
      <g transform="translate(50.835 240.604414)scale(0.1 -0.1)">
       <use xlink:href="#DejaVuSans-50"/>
       <use x="63.623047" xlink:href="#DejaVuSans-48"/>
      </g>
     </g>
    </g>
    <g id="ytick_4">
     <g id="line2d_13">
      <g>
       <use style="stroke:#000000;stroke-width:0.8;" x="70.56" xlink:href="#m78f4935ebc" y="184.207792"/>
      </g>
     </g>
     <g id="text_13">
      <!-- 30 -->
      <defs>
       <path d="M 40.578125 39.3125 
Q 47.65625 37.796875 51.625 33 
Q 55.609375 28.21875 55.609375 21.1875 
Q 55.609375 10.40625 48.1875 4.484375 
Q 40.765625 -1.421875 27.09375 -1.421875 
Q 22.515625 -1.421875 17.65625 -0.515625 
Q 12.796875 0.390625 7.625 2.203125 
L 7.625 11.71875 
Q 11.71875 9.328125 16.59375 8.109375 
Q 21.484375 6.890625 26.8125 6.890625 
Q 36.078125 6.890625 40.9375 10.546875 
Q 45.796875 14.203125 45.796875 21.1875 
Q 45.796875 27.640625 41.28125 31.265625 
Q 36.765625 34.90625 28.71875 34.90625 
L 20.21875 34.90625 
L 20.21875 43.015625 
L 29.109375 43.015625 
Q 36.375 43.015625 40.234375 45.921875 
Q 44.09375 48.828125 44.09375 54.296875 
Q 44.09375 59.90625 40.109375 62.90625 
Q 36.140625 65.921875 28.71875 65.921875 
Q 24.65625 65.921875 20.015625 65.03125 
Q 15.375 64.15625 9.8125 62.3125 
L 9.8125 71.09375 
Q 15.4375 72.65625 20.34375 73.4375 
Q 25.25 74.21875 29.59375 74.21875 
Q 40.828125 74.21875 47.359375 69.109375 
Q 53.90625 64.015625 53.90625 55.328125 
Q 53.90625 49.265625 50.4375 45.09375 
Q 46.96875 40.921875 40.578125 39.3125 
z
" id="DejaVuSans-51"/>
      </defs>
      <g transform="translate(50.835 188.007011)scale(0.1 -0.1)">
       <use xlink:href="#DejaVuSans-51"/>
       <use x="63.623047" xlink:href="#DejaVuSans-48"/>
      </g>
     </g>
    </g>
    <g id="ytick_5">
     <g id="line2d_14">
      <g>
       <use style="stroke:#000000;stroke-width:0.8;" x="70.56" xlink:href="#m78f4935ebc" y="131.61039"/>
      </g>
     </g>
     <g id="text_14">
      <!-- 40 -->
      <defs>
       <path d="M 37.796875 64.3125 
L 12.890625 25.390625 
L 37.796875 25.390625 
z
M 35.203125 72.90625 
L 47.609375 72.90625 
L 47.609375 25.390625 
L 58.015625 25.390625 
L 58.015625 17.1875 
L 47.609375 17.1875 
L 47.609375 0 
L 37.796875 0 
L 37.796875 17.1875 
L 4.890625 17.1875 
L 4.890625 26.703125 
z
" id="DejaVuSans-52"/>
      </defs>
      <g transform="translate(50.835 135.409608)scale(0.1 -0.1)">
       <use xlink:href="#DejaVuSans-52"/>
       <use x="63.623047" xlink:href="#DejaVuSans-48"/>
      </g>
     </g>
    </g>
    <g id="ytick_6">
     <g id="line2d_15">
      <g>
       <use style="stroke:#000000;stroke-width:0.8;" x="70.56" xlink:href="#m78f4935ebc" y="79.012987"/>
      </g>
     </g>
     <g id="text_15">
      <!-- 50 -->
      <g transform="translate(50.835 82.812206)scale(0.1 -0.1)">
       <use xlink:href="#DejaVuSans-53"/>
       <use x="63.623047" xlink:href="#DejaVuSans-48"/>
      </g>
     </g>
    </g>
    <g id="ytick_7">
     <g id="line2d_16">
      <g>
       <use style="stroke:#000000;stroke-width:0.8;" x="70.56" xlink:href="#m78f4935ebc" y="26.415584"/>
      </g>
     </g>
     <g id="text_16">
      <!-- 60 -->
      <defs>
       <path d="M 33.015625 40.375 
Q 26.375 40.375 22.484375 35.828125 
Q 18.609375 31.296875 18.609375 23.390625 
Q 18.609375 15.53125 22.484375 10.953125 
Q 26.375 6.390625 33.015625 6.390625 
Q 39.65625 6.390625 43.53125 10.953125 
Q 47.40625 15.53125 47.40625 23.390625 
Q 47.40625 31.296875 43.53125 35.828125 
Q 39.65625 40.375 33.015625 40.375 
z
M 52.59375 71.296875 
L 52.59375 62.3125 
Q 48.875 64.0625 45.09375 64.984375 
Q 41.3125 65.921875 37.59375 65.921875 
Q 27.828125 65.921875 22.671875 59.328125 
Q 17.53125 52.734375 16.796875 39.40625 
Q 19.671875 43.65625 24.015625 45.921875 
Q 28.375 48.1875 33.59375 48.1875 
Q 44.578125 48.1875 50.953125 41.515625 
Q 57.328125 34.859375 57.328125 23.390625 
Q 57.328125 12.15625 50.6875 5.359375 
Q 44.046875 -1.421875 33.015625 -1.421875 
Q 20.359375 -1.421875 13.671875 8.265625 
Q 6.984375 17.96875 6.984375 36.375 
Q 6.984375 53.65625 15.1875 63.9375 
Q 23.390625 74.21875 37.203125 74.21875 
Q 40.921875 74.21875 44.703125 73.484375 
Q 48.484375 72.75 52.59375 71.296875 
z
" id="DejaVuSans-54"/>
      </defs>
      <g transform="translate(50.835 30.214803)scale(0.1 -0.1)">
       <use xlink:href="#DejaVuSans-54"/>
       <use x="63.623047" xlink:href="#DejaVuSans-48"/>
      </g>
     </g>
    </g>
    <g id="text_17">
     <!-- % -->
     <defs>
      <path d="M 72.703125 32.078125 
Q 68.453125 32.078125 66.03125 28.46875 
Q 63.625 24.859375 63.625 18.40625 
Q 63.625 12.0625 66.03125 8.421875 
Q 68.453125 4.78125 72.703125 4.78125 
Q 76.859375 4.78125 79.265625 8.421875 
Q 81.6875 12.0625 81.6875 18.40625 
Q 81.6875 24.8125 79.265625 28.4375 
Q 76.859375 32.078125 72.703125 32.078125 
z
M 72.703125 38.28125 
Q 80.421875 38.28125 84.953125 32.90625 
Q 89.5 27.546875 89.5 18.40625 
Q 89.5 9.28125 84.9375 3.921875 
Q 80.375 -1.421875 72.703125 -1.421875 
Q 64.890625 -1.421875 60.34375 3.921875 
Q 55.8125 9.28125 55.8125 18.40625 
Q 55.8125 27.59375 60.375 32.9375 
Q 64.9375 38.28125 72.703125 38.28125 
z
M 22.3125 68.015625 
Q 18.109375 68.015625 15.6875 64.375 
Q 13.28125 60.75 13.28125 54.390625 
Q 13.28125 47.953125 15.671875 44.328125 
Q 18.0625 40.71875 22.3125 40.71875 
Q 26.5625 40.71875 28.96875 44.328125 
Q 31.390625 47.953125 31.390625 54.390625 
Q 31.390625 60.6875 28.953125 64.34375 
Q 26.515625 68.015625 22.3125 68.015625 
z
M 66.40625 74.21875 
L 74.21875 74.21875 
L 28.609375 -1.421875 
L 20.796875 -1.421875 
z
M 22.3125 74.21875 
Q 30.03125 74.21875 34.609375 68.875 
Q 39.203125 63.53125 39.203125 54.390625 
Q 39.203125 45.171875 34.640625 39.84375 
Q 30.078125 34.515625 22.3125 34.515625 
Q 14.546875 34.515625 10.03125 39.859375 
Q 5.515625 45.21875 5.515625 54.390625 
Q 5.515625 63.484375 10.046875 68.84375 
Q 14.59375 74.21875 22.3125 74.21875 
z
" id="DejaVuSans-37"/>
     </defs>
     <g transform="translate(44.755313 184.750781)rotate(-90)scale(0.1 -0.1)">
      <use xlink:href="#DejaVuSans-37"/>
     </g>
    </g>
   </g>
   <g id="LineCollection_1">
    <path clip-path="url(#pbb9af6b304)" d="M 70.56 342 
L 70.56 323.064935 
" style="fill:none;stroke:#000000;stroke-width:1.5;"/>
    <path clip-path="url(#pbb9af6b304)" d="M 73.08 342 
L 73.08 342 
" style="fill:none;stroke:#000000;stroke-width:1.5;"/>
    <path clip-path="url(#pbb9af6b304)" d="M 75.6 342 
L 75.6 342 
" style="fill:none;stroke:#000000;stroke-width:1.5;"/>
    <path clip-path="url(#pbb9af6b304)" d="M 78.12 342 
L 78.12 335.688312 
" style="fill:none;stroke:#000000;stroke-width:1.5;"/>
    <path clip-path="url(#pbb9af6b304)" d="M 80.64 342 
L 80.64 342 
" style="fill:none;stroke:#000000;stroke-width:1.5;"/>
    <path clip-path="url(#pbb9af6b304)" d="M 83.16 342 
L 83.16 342 
" style="fill:none;stroke:#000000;stroke-width:1.5;"/>
    <path clip-path="url(#pbb9af6b304)" d="M 85.68 342 
L 85.68 342 
" style="fill:none;stroke:#000000;stroke-width:1.5;"/>
    <path clip-path="url(#pbb9af6b304)" d="M 88.2 342 
L 88.2 338.844156 
" style="fill:none;stroke:#000000;stroke-width:1.5;"/>
    <path clip-path="url(#pbb9af6b304)" d="M 90.72 342 
L 90.72 336.74026 
" style="fill:none;stroke:#000000;stroke-width:1.5;"/>
    <path clip-path="url(#pbb9af6b304)" d="M 93.24 342 
L 93.24 340.948052 
" style="fill:none;stroke:#000000;stroke-width:1.5;"/>
    <path clip-path="url(#pbb9af6b304)" d="M 95.76 342 
L 95.76 336.74026 
" style="fill:none;stroke:#000000;stroke-width:1.5;"/>
    <path clip-path="url(#pbb9af6b304)" d="M 98.28 342 
L 98.28 340.948052 
" style="fill:none;stroke:#000000;stroke-width:1.5;"/>
    <path clip-path="url(#pbb9af6b304)" d="M 100.8 342 
L 100.8 342 
" style="fill:none;stroke:#000000;stroke-width:1.5;"/>
    <path clip-path="url(#pbb9af6b304)" d="M 103.32 342 
L 103.32 342 
" style="fill:none;stroke:#000000;stroke-width:1.5;"/>
    <path clip-path="url(#pbb9af6b304)" d="M 105.84 342 
L 105.84 330.428571 
" style="fill:none;stroke:#000000;stroke-width:1.5;"/>
    <path clip-path="url(#pbb9af6b304)" d="M 108.36 342 
L 108.36 342 
" style="fill:none;stroke:#000000;stroke-width:1.5;"/>
    <path clip-path="url(#pbb9af6b304)" d="M 110.88 342 
L 110.88 342 
" style="fill:none;stroke:#000000;stroke-width:1.5;"/>
    <path clip-path="url(#pbb9af6b304)" d="M 113.4 342 
L 113.4 304.12987 
" style="fill:none;stroke:#000000;stroke-width:1.5;"/>
    <path clip-path="url(#pbb9af6b304)" d="M 115.92 342 
L 115.92 340.948052 
" style="fill:none;stroke:#000000;stroke-width:1.5;"/>
    <path clip-path="url(#pbb9af6b304)" d="M 118.44 342 
L 118.44 342 
" style="fill:none;stroke:#000000;stroke-width:1.5;"/>
    <path clip-path="url(#pbb9af6b304)" d="M 120.96 342 
L 120.96 342 
" style="fill:none;stroke:#000000;stroke-width:1.5;"/>
    <path clip-path="url(#pbb9af6b304)" d="M 123.48 342 
L 123.48 340.948052 
" style="fill:none;stroke:#000000;stroke-width:1.5;"/>
    <path clip-path="url(#pbb9af6b304)" d="M 126 342 
L 126 342 
" style="fill:none;stroke:#000000;stroke-width:1.5;"/>
    <path clip-path="url(#pbb9af6b304)" d="M 128.52 342 
L 128.52 340.948052 
" style="fill:none;stroke:#000000;stroke-width:1.5;"/>
    <path clip-path="url(#pbb9af6b304)" d="M 131.04 342 
L 131.04 333.584416 
" style="fill:none;stroke:#000000;stroke-width:1.5;"/>
    <path clip-path="url(#pbb9af6b304)" d="M 133.56 342 
L 133.56 339.896104 
" style="fill:none;stroke:#000000;stroke-width:1.5;"/>
    <path clip-path="url(#pbb9af6b304)" d="M 136.08 342 
L 136.08 316.753247 
" style="fill:none;stroke:#000000;stroke-width:1.5;"/>
    <path clip-path="url(#pbb9af6b304)" d="M 138.6 342 
L 138.6 342 
" style="fill:none;stroke:#000000;stroke-width:1.5;"/>
    <path clip-path="url(#pbb9af6b304)" d="M 141.12 342 
L 141.12 339.896104 
" style="fill:none;stroke:#000000;stroke-width:1.5;"/>
    <path clip-path="url(#pbb9af6b304)" d="M 143.64 342 
L 143.64 334.636364 
" style="fill:none;stroke:#000000;stroke-width:1.5;"/>
    <path clip-path="url(#pbb9af6b304)" d="M 146.16 342 
L 146.16 342 
" style="fill:none;stroke:#000000;stroke-width:1.5;"/>
    <path clip-path="url(#pbb9af6b304)" d="M 148.68 342 
L 148.68 335.688312 
" style="fill:none;stroke:#000000;stroke-width:1.5;"/>
    <path clip-path="url(#pbb9af6b304)" d="M 151.2 342 
L 151.2 342 
" style="fill:none;stroke:#000000;stroke-width:1.5;"/>
    <path clip-path="url(#pbb9af6b304)" d="M 153.72 342 
L 153.72 339.896104 
" style="fill:none;stroke:#000000;stroke-width:1.5;"/>
    <path clip-path="url(#pbb9af6b304)" d="M 156.24 342 
L 156.24 342 
" style="fill:none;stroke:#000000;stroke-width:1.5;"/>
    <path clip-path="url(#pbb9af6b304)" d="M 158.76 342 
L 158.76 340.948052 
" style="fill:none;stroke:#000000;stroke-width:1.5;"/>
    <path clip-path="url(#pbb9af6b304)" d="M 161.28 342 
L 161.28 340.948052 
" style="fill:none;stroke:#000000;stroke-width:1.5;"/>
    <path clip-path="url(#pbb9af6b304)" d="M 163.8 342 
L 163.8 340.948052 
" style="fill:none;stroke:#000000;stroke-width:1.5;"/>
    <path clip-path="url(#pbb9af6b304)" d="M 166.32 342 
L 166.32 342 
" style="fill:none;stroke:#000000;stroke-width:1.5;"/>
    <path clip-path="url(#pbb9af6b304)" d="M 168.84 342 
L 168.84 342 
" style="fill:none;stroke:#000000;stroke-width:1.5;"/>
    <path clip-path="url(#pbb9af6b304)" d="M 171.36 342 
L 171.36 276.779221 
" style="fill:none;stroke:#000000;stroke-width:1.5;"/>
    <path clip-path="url(#pbb9af6b304)" d="M 173.88 342 
L 173.88 340.948052 
" style="fill:none;stroke:#000000;stroke-width:1.5;"/>
    <path clip-path="url(#pbb9af6b304)" d="M 176.4 342 
L 176.4 333.584416 
" style="fill:none;stroke:#000000;stroke-width:1.5;"/>
    <path clip-path="url(#pbb9af6b304)" d="M 178.92 342 
L 178.92 336.74026 
" style="fill:none;stroke:#000000;stroke-width:1.5;"/>
    <path clip-path="url(#pbb9af6b304)" d="M 181.44 342 
L 181.44 328.324675 
" style="fill:none;stroke:#000000;stroke-width:1.5;"/>
    <path clip-path="url(#pbb9af6b304)" d="M 183.96 342 
L 183.96 342 
" style="fill:none;stroke:#000000;stroke-width:1.5;"/>
    <path clip-path="url(#pbb9af6b304)" d="M 186.48 342 
L 186.48 342 
" style="fill:none;stroke:#000000;stroke-width:1.5;"/>
    <path clip-path="url(#pbb9af6b304)" d="M 189 342 
L 189 318.857143 
" style="fill:none;stroke:#000000;stroke-width:1.5;"/>
    <path clip-path="url(#pbb9af6b304)" d="M 191.52 342 
L 191.52 342 
" style="fill:none;stroke:#000000;stroke-width:1.5;"/>
    <path clip-path="url(#pbb9af6b304)" d="M 194.04 342 
L 194.04 246.272727 
" style="fill:none;stroke:#000000;stroke-width:1.5;"/>
    <path clip-path="url(#pbb9af6b304)" d="M 196.56 342 
L 196.56 328.324675 
" style="fill:none;stroke:#000000;stroke-width:1.5;"/>
    <path clip-path="url(#pbb9af6b304)" d="M 199.08 342 
L 199.08 340.948052 
" style="fill:none;stroke:#000000;stroke-width:1.5;"/>
    <path clip-path="url(#pbb9af6b304)" d="M 201.6 342 
L 201.6 325.168831 
" style="fill:none;stroke:#000000;stroke-width:1.5;"/>
    <path clip-path="url(#pbb9af6b304)" d="M 204.12 342 
L 204.12 337.792208 
" style="fill:none;stroke:#000000;stroke-width:1.5;"/>
    <path clip-path="url(#pbb9af6b304)" d="M 206.64 342 
L 206.64 342 
" style="fill:none;stroke:#000000;stroke-width:1.5;"/>
    <path clip-path="url(#pbb9af6b304)" d="M 209.16 342 
L 209.16 340.948052 
" style="fill:none;stroke:#000000;stroke-width:1.5;"/>
    <path clip-path="url(#pbb9af6b304)" d="M 211.68 342 
L 211.68 310.441558 
" style="fill:none;stroke:#000000;stroke-width:1.5;"/>
    <path clip-path="url(#pbb9af6b304)" d="M 214.2 342 
L 214.2 335.688312 
" style="fill:none;stroke:#000000;stroke-width:1.5;"/>
    <path clip-path="url(#pbb9af6b304)" d="M 216.72 342 
L 216.72 342 
" style="fill:none;stroke:#000000;stroke-width:1.5;"/>
    <path clip-path="url(#pbb9af6b304)" d="M 219.24 342 
L 219.24 336.74026 
" style="fill:none;stroke:#000000;stroke-width:1.5;"/>
    <path clip-path="url(#pbb9af6b304)" d="M 221.76 342 
L 221.76 47.454545 
" style="fill:none;stroke:#000000;stroke-width:1.5;"/>
    <path clip-path="url(#pbb9af6b304)" d="M 224.28 342 
L 224.28 340.948052 
" style="fill:none;stroke:#000000;stroke-width:1.5;"/>
    <path clip-path="url(#pbb9af6b304)" d="M 226.8 342 
L 226.8 316.753247 
" style="fill:none;stroke:#000000;stroke-width:1.5;"/>
    <path clip-path="url(#pbb9af6b304)" d="M 229.32 342 
L 229.32 338.844156 
" style="fill:none;stroke:#000000;stroke-width:1.5;"/>
    <path clip-path="url(#pbb9af6b304)" d="M 231.84 342 
L 231.84 330.428571 
" style="fill:none;stroke:#000000;stroke-width:1.5;"/>
    <path clip-path="url(#pbb9af6b304)" d="M 234.36 342 
L 234.36 333.584416 
" style="fill:none;stroke:#000000;stroke-width:1.5;"/>
    <path clip-path="url(#pbb9af6b304)" d="M 236.88 342 
L 236.88 342 
" style="fill:none;stroke:#000000;stroke-width:1.5;"/>
    <path clip-path="url(#pbb9af6b304)" d="M 239.4 342 
L 239.4 189.467532 
" style="fill:none;stroke:#000000;stroke-width:1.5;"/>
    <path clip-path="url(#pbb9af6b304)" d="M 241.92 342 
L 241.92 342 
" style="fill:none;stroke:#000000;stroke-width:1.5;"/>
    <path clip-path="url(#pbb9af6b304)" d="M 244.44 342 
L 244.44 340.948052 
" style="fill:none;stroke:#000000;stroke-width:1.5;"/>
    <path clip-path="url(#pbb9af6b304)" d="M 246.96 342 
L 246.96 337.792208 
" style="fill:none;stroke:#000000;stroke-width:1.5;"/>
    <path clip-path="url(#pbb9af6b304)" d="M 249.48 342 
L 249.48 326.220779 
" style="fill:none;stroke:#000000;stroke-width:1.5;"/>
    <path clip-path="url(#pbb9af6b304)" d="M 252 342 
L 252 342 
" style="fill:none;stroke:#000000;stroke-width:1.5;"/>
    <path clip-path="url(#pbb9af6b304)" d="M 254.52 342 
L 254.52 342 
" style="fill:none;stroke:#000000;stroke-width:1.5;"/>
    <path clip-path="url(#pbb9af6b304)" d="M 257.04 342 
L 257.04 342 
" style="fill:none;stroke:#000000;stroke-width:1.5;"/>
    <path clip-path="url(#pbb9af6b304)" d="M 259.56 342 
L 259.56 336.74026 
" style="fill:none;stroke:#000000;stroke-width:1.5;"/>
    <path clip-path="url(#pbb9af6b304)" d="M 262.08 342 
L 262.08 342 
" style="fill:none;stroke:#000000;stroke-width:1.5;"/>
    <path clip-path="url(#pbb9af6b304)" d="M 264.6 342 
L 264.6 342 
" style="fill:none;stroke:#000000;stroke-width:1.5;"/>
    <path clip-path="url(#pbb9af6b304)" d="M 267.12 342 
L 267.12 338.844156 
" style="fill:none;stroke:#000000;stroke-width:1.5;"/>
    <path clip-path="url(#pbb9af6b304)" d="M 269.64 342 
L 269.64 331.480519 
" style="fill:none;stroke:#000000;stroke-width:1.5;"/>
    <path clip-path="url(#pbb9af6b304)" d="M 272.16 342 
L 272.16 340.948052 
" style="fill:none;stroke:#000000;stroke-width:1.5;"/>
    <path clip-path="url(#pbb9af6b304)" d="M 274.68 342 
L 274.68 332.532468 
" style="fill:none;stroke:#000000;stroke-width:1.5;"/>
    <path clip-path="url(#pbb9af6b304)" d="M 277.2 342 
L 277.2 342 
" style="fill:none;stroke:#000000;stroke-width:1.5;"/>
    <path clip-path="url(#pbb9af6b304)" d="M 279.72 342 
L 279.72 340.948052 
" style="fill:none;stroke:#000000;stroke-width:1.5;"/>
    <path clip-path="url(#pbb9af6b304)" d="M 282.24 342 
L 282.24 342 
" style="fill:none;stroke:#000000;stroke-width:1.5;"/>
    <path clip-path="url(#pbb9af6b304)" d="M 284.76 342 
L 284.76 338.844156 
" style="fill:none;stroke:#000000;stroke-width:1.5;"/>
    <path clip-path="url(#pbb9af6b304)" d="M 287.28 342 
L 287.28 340.948052 
" style="fill:none;stroke:#000000;stroke-width:1.5;"/>
    <path clip-path="url(#pbb9af6b304)" d="M 289.8 342 
L 289.8 342 
" style="fill:none;stroke:#000000;stroke-width:1.5;"/>
    <path clip-path="url(#pbb9af6b304)" d="M 292.32 342 
L 292.32 339.896104 
" style="fill:none;stroke:#000000;stroke-width:1.5;"/>
    <path clip-path="url(#pbb9af6b304)" d="M 294.84 342 
L 294.84 340.948052 
" style="fill:none;stroke:#000000;stroke-width:1.5;"/>
    <path clip-path="url(#pbb9af6b304)" d="M 297.36 342 
L 297.36 342 
" style="fill:none;stroke:#000000;stroke-width:1.5;"/>
    <path clip-path="url(#pbb9af6b304)" d="M 299.88 342 
L 299.88 336.74026 
" style="fill:none;stroke:#000000;stroke-width:1.5;"/>
    <path clip-path="url(#pbb9af6b304)" d="M 302.4 342 
L 302.4 337.792208 
" style="fill:none;stroke:#000000;stroke-width:1.5;"/>
    <path clip-path="url(#pbb9af6b304)" d="M 304.92 342 
L 304.92 335.688312 
" style="fill:none;stroke:#000000;stroke-width:1.5;"/>
    <path clip-path="url(#pbb9af6b304)" d="M 307.44 342 
L 307.44 340.948052 
" style="fill:none;stroke:#000000;stroke-width:1.5;"/>
    <path clip-path="url(#pbb9af6b304)" d="M 309.96 342 
L 309.96 326.220779 
" style="fill:none;stroke:#000000;stroke-width:1.5;"/>
    <path clip-path="url(#pbb9af6b304)" d="M 312.48 342 
L 312.48 340.948052 
" style="fill:none;stroke:#000000;stroke-width:1.5;"/>
    <path clip-path="url(#pbb9af6b304)" d="M 315 342 
L 315 340.948052 
" style="fill:none;stroke:#000000;stroke-width:1.5;"/>
    <path clip-path="url(#pbb9af6b304)" d="M 317.52 342 
L 317.52 340.948052 
" style="fill:none;stroke:#000000;stroke-width:1.5;"/>
    <path clip-path="url(#pbb9af6b304)" d="M 320.04 342 
L 320.04 342 
" style="fill:none;stroke:#000000;stroke-width:1.5;"/>
    <path clip-path="url(#pbb9af6b304)" d="M 322.56 342 
L 322.56 340.948052 
" style="fill:none;stroke:#000000;stroke-width:1.5;"/>
    <path clip-path="url(#pbb9af6b304)" d="M 325.08 342 
L 325.08 337.792208 
" style="fill:none;stroke:#000000;stroke-width:1.5;"/>
    <path clip-path="url(#pbb9af6b304)" d="M 327.6 342 
L 327.6 338.844156 
" style="fill:none;stroke:#000000;stroke-width:1.5;"/>
    <path clip-path="url(#pbb9af6b304)" d="M 330.12 342 
L 330.12 342 
" style="fill:none;stroke:#000000;stroke-width:1.5;"/>
    <path clip-path="url(#pbb9af6b304)" d="M 332.64 342 
L 332.64 342 
" style="fill:none;stroke:#000000;stroke-width:1.5;"/>
    <path clip-path="url(#pbb9af6b304)" d="M 335.16 342 
L 335.16 339.896104 
" style="fill:none;stroke:#000000;stroke-width:1.5;"/>
    <path clip-path="url(#pbb9af6b304)" d="M 337.68 342 
L 337.68 339.896104 
" style="fill:none;stroke:#000000;stroke-width:1.5;"/>
    <path clip-path="url(#pbb9af6b304)" d="M 340.2 342 
L 340.2 339.896104 
" style="fill:none;stroke:#000000;stroke-width:1.5;"/>
    <path clip-path="url(#pbb9af6b304)" d="M 342.72 342 
L 342.72 340.948052 
" style="fill:none;stroke:#000000;stroke-width:1.5;"/>
    <path clip-path="url(#pbb9af6b304)" d="M 345.24 342 
L 345.24 337.792208 
" style="fill:none;stroke:#000000;stroke-width:1.5;"/>
    <path clip-path="url(#pbb9af6b304)" d="M 347.76 342 
L 347.76 342 
" style="fill:none;stroke:#000000;stroke-width:1.5;"/>
    <path clip-path="url(#pbb9af6b304)" d="M 350.28 342 
L 350.28 342 
" style="fill:none;stroke:#000000;stroke-width:1.5;"/>
    <path clip-path="url(#pbb9af6b304)" d="M 352.8 342 
L 352.8 336.74026 
" style="fill:none;stroke:#000000;stroke-width:1.5;"/>
    <path clip-path="url(#pbb9af6b304)" d="M 355.32 342 
L 355.32 340.948052 
" style="fill:none;stroke:#000000;stroke-width:1.5;"/>
    <path clip-path="url(#pbb9af6b304)" d="M 357.84 342 
L 357.84 342 
" style="fill:none;stroke:#000000;stroke-width:1.5;"/>
    <path clip-path="url(#pbb9af6b304)" d="M 360.36 342 
L 360.36 324.116883 
" style="fill:none;stroke:#000000;stroke-width:1.5;"/>
    <path clip-path="url(#pbb9af6b304)" d="M 362.88 342 
L 362.88 339.896104 
" style="fill:none;stroke:#000000;stroke-width:1.5;"/>
    <path clip-path="url(#pbb9af6b304)" d="M 365.4 342 
L 365.4 340.948052 
" style="fill:none;stroke:#000000;stroke-width:1.5;"/>
    <path clip-path="url(#pbb9af6b304)" d="M 367.92 342 
L 367.92 330.428571 
" style="fill:none;stroke:#000000;stroke-width:1.5;"/>
    <path clip-path="url(#pbb9af6b304)" d="M 370.44 342 
L 370.44 342 
" style="fill:none;stroke:#000000;stroke-width:1.5;"/>
    <path clip-path="url(#pbb9af6b304)" d="M 372.96 342 
L 372.96 342 
" style="fill:none;stroke:#000000;stroke-width:1.5;"/>
    <path clip-path="url(#pbb9af6b304)" d="M 375.48 342 
L 375.48 336.74026 
" style="fill:none;stroke:#000000;stroke-width:1.5;"/>
    <path clip-path="url(#pbb9af6b304)" d="M 378 342 
L 378 342 
" style="fill:none;stroke:#000000;stroke-width:1.5;"/>
    <path clip-path="url(#pbb9af6b304)" d="M 380.52 342 
L 380.52 333.584416 
" style="fill:none;stroke:#000000;stroke-width:1.5;"/>
    <path clip-path="url(#pbb9af6b304)" d="M 383.04 342 
L 383.04 333.584416 
" style="fill:none;stroke:#000000;stroke-width:1.5;"/>
    <path clip-path="url(#pbb9af6b304)" d="M 385.56 342 
L 385.56 310.441558 
" style="fill:none;stroke:#000000;stroke-width:1.5;"/>
    <path clip-path="url(#pbb9af6b304)" d="M 388.08 342 
L 388.08 342 
" style="fill:none;stroke:#000000;stroke-width:1.5;"/>
    <path clip-path="url(#pbb9af6b304)" d="M 390.6 342 
L 390.6 342 
" style="fill:none;stroke:#000000;stroke-width:1.5;"/>
    <path clip-path="url(#pbb9af6b304)" d="M 393.12 342 
L 393.12 342 
" style="fill:none;stroke:#000000;stroke-width:1.5;"/>
    <path clip-path="url(#pbb9af6b304)" d="M 395.64 342 
L 395.64 339.896104 
" style="fill:none;stroke:#000000;stroke-width:1.5;"/>
    <path clip-path="url(#pbb9af6b304)" d="M 398.16 342 
L 398.16 342 
" style="fill:none;stroke:#000000;stroke-width:1.5;"/>
    <path clip-path="url(#pbb9af6b304)" d="M 400.68 342 
L 400.68 334.636364 
" style="fill:none;stroke:#000000;stroke-width:1.5;"/>
    <path clip-path="url(#pbb9af6b304)" d="M 403.2 342 
L 403.2 340.948052 
" style="fill:none;stroke:#000000;stroke-width:1.5;"/>
    <path clip-path="url(#pbb9af6b304)" d="M 405.72 342 
L 405.72 331.480519 
" style="fill:none;stroke:#000000;stroke-width:1.5;"/>
    <path clip-path="url(#pbb9af6b304)" d="M 408.24 342 
L 408.24 339.896104 
" style="fill:none;stroke:#000000;stroke-width:1.5;"/>
    <path clip-path="url(#pbb9af6b304)" d="M 410.76 342 
L 410.76 340.948052 
" style="fill:none;stroke:#000000;stroke-width:1.5;"/>
    <path clip-path="url(#pbb9af6b304)" d="M 413.28 342 
L 413.28 317.805195 
" style="fill:none;stroke:#000000;stroke-width:1.5;"/>
    <path clip-path="url(#pbb9af6b304)" d="M 415.8 342 
L 415.8 342 
" style="fill:none;stroke:#000000;stroke-width:1.5;"/>
    <path clip-path="url(#pbb9af6b304)" d="M 418.32 342 
L 418.32 340.948052 
" style="fill:none;stroke:#000000;stroke-width:1.5;"/>
    <path clip-path="url(#pbb9af6b304)" d="M 420.84 342 
L 420.84 342 
" style="fill:none;stroke:#000000;stroke-width:1.5;"/>
    <path clip-path="url(#pbb9af6b304)" d="M 423.36 342 
L 423.36 337.792208 
" style="fill:none;stroke:#000000;stroke-width:1.5;"/>
    <path clip-path="url(#pbb9af6b304)" d="M 425.88 342 
L 425.88 336.74026 
" style="fill:none;stroke:#000000;stroke-width:1.5;"/>
    <path clip-path="url(#pbb9af6b304)" d="M 428.4 342 
L 428.4 342 
" style="fill:none;stroke:#000000;stroke-width:1.5;"/>
    <path clip-path="url(#pbb9af6b304)" d="M 430.92 342 
L 430.92 342 
" style="fill:none;stroke:#000000;stroke-width:1.5;"/>
    <path clip-path="url(#pbb9af6b304)" d="M 433.44 342 
L 433.44 339.896104 
" style="fill:none;stroke:#000000;stroke-width:1.5;"/>
    <path clip-path="url(#pbb9af6b304)" d="M 435.96 342 
L 435.96 337.792208 
" style="fill:none;stroke:#000000;stroke-width:1.5;"/>
    <path clip-path="url(#pbb9af6b304)" d="M 438.48 342 
L 438.48 342 
" style="fill:none;stroke:#000000;stroke-width:1.5;"/>
    <path clip-path="url(#pbb9af6b304)" d="M 441 342 
L 441 342 
" style="fill:none;stroke:#000000;stroke-width:1.5;"/>
    <path clip-path="url(#pbb9af6b304)" d="M 443.52 342 
L 443.52 342 
" style="fill:none;stroke:#000000;stroke-width:1.5;"/>
    <path clip-path="url(#pbb9af6b304)" d="M 446.04 342 
L 446.04 342 
" style="fill:none;stroke:#000000;stroke-width:1.5;"/>
    <path clip-path="url(#pbb9af6b304)" d="M 448.56 342 
L 448.56 329.376623 
" style="fill:none;stroke:#000000;stroke-width:1.5;"/>
    <path clip-path="url(#pbb9af6b304)" d="M 451.08 342 
L 451.08 339.896104 
" style="fill:none;stroke:#000000;stroke-width:1.5;"/>
    <path clip-path="url(#pbb9af6b304)" d="M 453.6 342 
L 453.6 311.493506 
" style="fill:none;stroke:#000000;stroke-width:1.5;"/>
    <path clip-path="url(#pbb9af6b304)" d="M 456.12 342 
L 456.12 273.623377 
" style="fill:none;stroke:#000000;stroke-width:1.5;"/>
    <path clip-path="url(#pbb9af6b304)" d="M 458.64 342 
L 458.64 342 
" style="fill:none;stroke:#000000;stroke-width:1.5;"/>
    <path clip-path="url(#pbb9af6b304)" d="M 461.16 342 
L 461.16 340.948052 
" style="fill:none;stroke:#000000;stroke-width:1.5;"/>
    <path clip-path="url(#pbb9af6b304)" d="M 463.68 342 
L 463.68 337.792208 
" style="fill:none;stroke:#000000;stroke-width:1.5;"/>
    <path clip-path="url(#pbb9af6b304)" d="M 466.2 342 
L 466.2 342 
" style="fill:none;stroke:#000000;stroke-width:1.5;"/>
    <path clip-path="url(#pbb9af6b304)" d="M 468.72 342 
L 468.72 337.792208 
" style="fill:none;stroke:#000000;stroke-width:1.5;"/>
    <path clip-path="url(#pbb9af6b304)" d="M 471.24 342 
L 471.24 342 
" style="fill:none;stroke:#000000;stroke-width:1.5;"/>
    <path clip-path="url(#pbb9af6b304)" d="M 473.76 342 
L 473.76 291.506494 
" style="fill:none;stroke:#000000;stroke-width:1.5;"/>
    <path clip-path="url(#pbb9af6b304)" d="M 476.28 342 
L 476.28 342 
" style="fill:none;stroke:#000000;stroke-width:1.5;"/>
    <path clip-path="url(#pbb9af6b304)" d="M 478.8 342 
L 478.8 334.636364 
" style="fill:none;stroke:#000000;stroke-width:1.5;"/>
    <path clip-path="url(#pbb9af6b304)" d="M 481.32 342 
L 481.32 338.844156 
" style="fill:none;stroke:#000000;stroke-width:1.5;"/>
    <path clip-path="url(#pbb9af6b304)" d="M 483.84 342 
L 483.84 342 
" style="fill:none;stroke:#000000;stroke-width:1.5;"/>
    <path clip-path="url(#pbb9af6b304)" d="M 486.36 342 
L 486.36 340.948052 
" style="fill:none;stroke:#000000;stroke-width:1.5;"/>
    <path clip-path="url(#pbb9af6b304)" d="M 488.88 342 
L 488.88 342 
" style="fill:none;stroke:#000000;stroke-width:1.5;"/>
    <path clip-path="url(#pbb9af6b304)" d="M 491.4 342 
L 491.4 322.012987 
" style="fill:none;stroke:#000000;stroke-width:1.5;"/>
    <path clip-path="url(#pbb9af6b304)" d="M 493.92 342 
L 493.92 335.688312 
" style="fill:none;stroke:#000000;stroke-width:1.5;"/>
    <path clip-path="url(#pbb9af6b304)" d="M 496.44 342 
L 496.44 339.896104 
" style="fill:none;stroke:#000000;stroke-width:1.5;"/>
    <path clip-path="url(#pbb9af6b304)" d="M 498.96 342 
L 498.96 311.493506 
" style="fill:none;stroke:#000000;stroke-width:1.5;"/>
    <path clip-path="url(#pbb9af6b304)" d="M 501.48 342 
L 501.48 340.948052 
" style="fill:none;stroke:#000000;stroke-width:1.5;"/>
    <path clip-path="url(#pbb9af6b304)" d="M 504 342 
L 504 331.480519 
" style="fill:none;stroke:#000000;stroke-width:1.5;"/>
    <path clip-path="url(#pbb9af6b304)" d="M 506.52 342 
L 506.52 338.844156 
" style="fill:none;stroke:#000000;stroke-width:1.5;"/>
    <path clip-path="url(#pbb9af6b304)" d="M 509.04 342 
L 509.04 342 
" style="fill:none;stroke:#000000;stroke-width:1.5;"/>
    <path clip-path="url(#pbb9af6b304)" d="M 511.56 342 
L 511.56 340.948052 
" style="fill:none;stroke:#000000;stroke-width:1.5;"/>
    <path clip-path="url(#pbb9af6b304)" d="M 514.08 342 
L 514.08 342 
" style="fill:none;stroke:#000000;stroke-width:1.5;"/>
    <path clip-path="url(#pbb9af6b304)" d="M 516.6 342 
L 516.6 234.701299 
" style="fill:none;stroke:#000000;stroke-width:1.5;"/>
    <path clip-path="url(#pbb9af6b304)" d="M 519.12 342 
L 519.12 340.948052 
" style="fill:none;stroke:#000000;stroke-width:1.5;"/>
    <path clip-path="url(#pbb9af6b304)" d="M 521.64 342 
L 521.64 340.948052 
" style="fill:none;stroke:#000000;stroke-width:1.5;"/>
    <path clip-path="url(#pbb9af6b304)" d="M 524.16 342 
L 524.16 340.948052 
" style="fill:none;stroke:#000000;stroke-width:1.5;"/>
    <path clip-path="url(#pbb9af6b304)" d="M 526.68 342 
L 526.68 339.896104 
" style="fill:none;stroke:#000000;stroke-width:1.5;"/>
    <path clip-path="url(#pbb9af6b304)" d="M 529.2 342 
L 529.2 335.688312 
" style="fill:none;stroke:#000000;stroke-width:1.5;"/>
    <path clip-path="url(#pbb9af6b304)" d="M 531.72 342 
L 531.72 340.948052 
" style="fill:none;stroke:#000000;stroke-width:1.5;"/>
    <path clip-path="url(#pbb9af6b304)" d="M 534.24 342 
L 534.24 339.896104 
" style="fill:none;stroke:#000000;stroke-width:1.5;"/>
    <path clip-path="url(#pbb9af6b304)" d="M 536.76 342 
L 536.76 329.376623 
" style="fill:none;stroke:#000000;stroke-width:1.5;"/>
    <path clip-path="url(#pbb9af6b304)" d="M 539.28 342 
L 539.28 339.896104 
" style="fill:none;stroke:#000000;stroke-width:1.5;"/>
    <path clip-path="url(#pbb9af6b304)" d="M 541.8 342 
L 541.8 274.675325 
" style="fill:none;stroke:#000000;stroke-width:1.5;"/>
    <path clip-path="url(#pbb9af6b304)" d="M 544.32 342 
L 544.32 340.948052 
" style="fill:none;stroke:#000000;stroke-width:1.5;"/>
    <path clip-path="url(#pbb9af6b304)" d="M 546.84 342 
L 546.84 340.948052 
" style="fill:none;stroke:#000000;stroke-width:1.5;"/>
    <path clip-path="url(#pbb9af6b304)" d="M 549.36 342 
L 549.36 336.74026 
" style="fill:none;stroke:#000000;stroke-width:1.5;"/>
    <path clip-path="url(#pbb9af6b304)" d="M 551.88 342 
L 551.88 337.792208 
" style="fill:none;stroke:#000000;stroke-width:1.5;"/>
    <path clip-path="url(#pbb9af6b304)" d="M 554.4 342 
L 554.4 332.532468 
" style="fill:none;stroke:#000000;stroke-width:1.5;"/>
    <path clip-path="url(#pbb9af6b304)" d="M 556.92 342 
L 556.92 336.74026 
" style="fill:none;stroke:#000000;stroke-width:1.5;"/>
    <path clip-path="url(#pbb9af6b304)" d="M 559.44 342 
L 559.44 342 
" style="fill:none;stroke:#000000;stroke-width:1.5;"/>
    <path clip-path="url(#pbb9af6b304)" d="M 561.96 342 
L 561.96 342 
" style="fill:none;stroke:#000000;stroke-width:1.5;"/>
    <path clip-path="url(#pbb9af6b304)" d="M 564.48 342 
L 564.48 335.688312 
" style="fill:none;stroke:#000000;stroke-width:1.5;"/>
    <path clip-path="url(#pbb9af6b304)" d="M 567 342 
L 567 342 
" style="fill:none;stroke:#000000;stroke-width:1.5;"/>
    <path clip-path="url(#pbb9af6b304)" d="M 569.52 342 
L 569.52 337.792208 
" style="fill:none;stroke:#000000;stroke-width:1.5;"/>
    <path clip-path="url(#pbb9af6b304)" d="M 572.04 342 
L 572.04 340.948052 
" style="fill:none;stroke:#000000;stroke-width:1.5;"/>
   </g>
   <g id="patch_3">
    <path d="M 70.56 342 
L 70.56 18 
" style="fill:none;stroke:#000000;stroke-linecap:square;stroke-linejoin:miter;stroke-width:0.8;"/>
   </g>
   <g id="patch_4">
    <path d="M 574.56 342 
L 574.56 18 
" style="fill:none;stroke:#000000;stroke-linecap:square;stroke-linejoin:miter;stroke-width:0.8;"/>
   </g>
   <g id="patch_5">
    <path d="M 70.56 342 
L 574.56 342 
" style="fill:none;stroke:#000000;stroke-linecap:square;stroke-linejoin:miter;stroke-width:0.8;"/>
   </g>
   <g id="patch_6">
    <path d="M 70.56 18 
L 574.56 18 
" style="fill:none;stroke:#000000;stroke-linecap:square;stroke-linejoin:miter;stroke-width:0.8;"/>
   </g>
   <g id="text_18">
    <!-- Area less than 1.0% (train) -->
    <defs>
     <path d="M 34.1875 63.1875 
L 20.796875 26.90625 
L 47.609375 26.90625 
z
M 28.609375 72.90625 
L 39.796875 72.90625 
L 67.578125 0 
L 57.328125 0 
L 50.6875 18.703125 
L 17.828125 18.703125 
L 11.1875 0 
L 0.78125 0 
z
" id="DejaVuSans-65"/>
     <path d="M 41.109375 46.296875 
Q 39.59375 47.171875 37.8125 47.578125 
Q 36.03125 48 33.890625 48 
Q 26.265625 48 22.1875 43.046875 
Q 18.109375 38.09375 18.109375 28.8125 
L 18.109375 0 
L 9.078125 0 
L 9.078125 54.6875 
L 18.109375 54.6875 
L 18.109375 46.1875 
Q 20.953125 51.171875 25.484375 53.578125 
Q 30.03125 56 36.53125 56 
Q 37.453125 56 38.578125 55.875 
Q 39.703125 55.765625 41.0625 55.515625 
z
" id="DejaVuSans-114"/>
     <path d="M 56.203125 29.59375 
L 56.203125 25.203125 
L 14.890625 25.203125 
Q 15.484375 15.921875 20.484375 11.0625 
Q 25.484375 6.203125 34.421875 6.203125 
Q 39.59375 6.203125 44.453125 7.46875 
Q 49.3125 8.734375 54.109375 11.28125 
L 54.109375 2.78125 
Q 49.265625 0.734375 44.1875 -0.34375 
Q 39.109375 -1.421875 33.890625 -1.421875 
Q 20.796875 -1.421875 13.15625 6.1875 
Q 5.515625 13.8125 5.515625 26.8125 
Q 5.515625 40.234375 12.765625 48.109375 
Q 20.015625 56 32.328125 56 
Q 43.359375 56 49.78125 48.890625 
Q 56.203125 41.796875 56.203125 29.59375 
z
M 47.21875 32.234375 
Q 47.125 39.59375 43.09375 43.984375 
Q 39.0625 48.390625 32.421875 48.390625 
Q 24.90625 48.390625 20.390625 44.140625 
Q 15.875 39.890625 15.1875 32.171875 
z
" id="DejaVuSans-101"/>
     <path d="M 34.28125 27.484375 
Q 23.390625 27.484375 19.1875 25 
Q 14.984375 22.515625 14.984375 16.5 
Q 14.984375 11.71875 18.140625 8.90625 
Q 21.296875 6.109375 26.703125 6.109375 
Q 34.1875 6.109375 38.703125 11.40625 
Q 43.21875 16.703125 43.21875 25.484375 
L 43.21875 27.484375 
z
M 52.203125 31.203125 
L 52.203125 0 
L 43.21875 0 
L 43.21875 8.296875 
Q 40.140625 3.328125 35.546875 0.953125 
Q 30.953125 -1.421875 24.3125 -1.421875 
Q 15.921875 -1.421875 10.953125 3.296875 
Q 6 8.015625 6 15.921875 
Q 6 25.140625 12.171875 29.828125 
Q 18.359375 34.515625 30.609375 34.515625 
L 43.21875 34.515625 
L 43.21875 35.40625 
Q 43.21875 41.609375 39.140625 45 
Q 35.0625 48.390625 27.6875 48.390625 
Q 23 48.390625 18.546875 47.265625 
Q 14.109375 46.140625 10.015625 43.890625 
L 10.015625 52.203125 
Q 14.9375 54.109375 19.578125 55.046875 
Q 24.21875 56 28.609375 56 
Q 40.484375 56 46.34375 49.84375 
Q 52.203125 43.703125 52.203125 31.203125 
z
" id="DejaVuSans-97"/>
     <path id="DejaVuSans-32"/>
     <path d="M 9.421875 75.984375 
L 18.40625 75.984375 
L 18.40625 0 
L 9.421875 0 
z
" id="DejaVuSans-108"/>
     <path d="M 44.28125 53.078125 
L 44.28125 44.578125 
Q 40.484375 46.53125 36.375 47.5 
Q 32.28125 48.484375 27.875 48.484375 
Q 21.1875 48.484375 17.84375 46.4375 
Q 14.5 44.390625 14.5 40.28125 
Q 14.5 37.15625 16.890625 35.375 
Q 19.28125 33.59375 26.515625 31.984375 
L 29.59375 31.296875 
Q 39.15625 29.25 43.1875 25.515625 
Q 47.21875 21.78125 47.21875 15.09375 
Q 47.21875 7.46875 41.1875 3.015625 
Q 35.15625 -1.421875 24.609375 -1.421875 
Q 20.21875 -1.421875 15.453125 -0.5625 
Q 10.6875 0.296875 5.421875 2 
L 5.421875 11.28125 
Q 10.40625 8.6875 15.234375 7.390625 
Q 20.0625 6.109375 24.8125 6.109375 
Q 31.15625 6.109375 34.5625 8.28125 
Q 37.984375 10.453125 37.984375 14.40625 
Q 37.984375 18.0625 35.515625 20.015625 
Q 33.0625 21.96875 24.703125 23.78125 
L 21.578125 24.515625 
Q 13.234375 26.265625 9.515625 29.90625 
Q 5.8125 33.546875 5.8125 39.890625 
Q 5.8125 47.609375 11.28125 51.796875 
Q 16.75 56 26.8125 56 
Q 31.78125 56 36.171875 55.265625 
Q 40.578125 54.546875 44.28125 53.078125 
z
" id="DejaVuSans-115"/>
     <path d="M 18.3125 70.21875 
L 18.3125 54.6875 
L 36.8125 54.6875 
L 36.8125 47.703125 
L 18.3125 47.703125 
L 18.3125 18.015625 
Q 18.3125 11.328125 20.140625 9.421875 
Q 21.96875 7.515625 27.59375 7.515625 
L 36.8125 7.515625 
L 36.8125 0 
L 27.59375 0 
Q 17.1875 0 13.234375 3.875 
Q 9.28125 7.765625 9.28125 18.015625 
L 9.28125 47.703125 
L 2.6875 47.703125 
L 2.6875 54.6875 
L 9.28125 54.6875 
L 9.28125 70.21875 
z
" id="DejaVuSans-116"/>
     <path d="M 54.890625 33.015625 
L 54.890625 0 
L 45.90625 0 
L 45.90625 32.71875 
Q 45.90625 40.484375 42.875 44.328125 
Q 39.84375 48.1875 33.796875 48.1875 
Q 26.515625 48.1875 22.3125 43.546875 
Q 18.109375 38.921875 18.109375 30.90625 
L 18.109375 0 
L 9.078125 0 
L 9.078125 75.984375 
L 18.109375 75.984375 
L 18.109375 46.1875 
Q 21.34375 51.125 25.703125 53.5625 
Q 30.078125 56 35.796875 56 
Q 45.21875 56 50.046875 50.171875 
Q 54.890625 44.34375 54.890625 33.015625 
z
" id="DejaVuSans-104"/>
     <path d="M 54.890625 33.015625 
L 54.890625 0 
L 45.90625 0 
L 45.90625 32.71875 
Q 45.90625 40.484375 42.875 44.328125 
Q 39.84375 48.1875 33.796875 48.1875 
Q 26.515625 48.1875 22.3125 43.546875 
Q 18.109375 38.921875 18.109375 30.90625 
L 18.109375 0 
L 9.078125 0 
L 9.078125 54.6875 
L 18.109375 54.6875 
L 18.109375 46.1875 
Q 21.34375 51.125 25.703125 53.5625 
Q 30.078125 56 35.796875 56 
Q 45.21875 56 50.046875 50.171875 
Q 54.890625 44.34375 54.890625 33.015625 
z
" id="DejaVuSans-110"/>
     <path d="M 10.6875 12.40625 
L 21 12.40625 
L 21 0 
L 10.6875 0 
z
" id="DejaVuSans-46"/>
     <path d="M 31 75.875 
Q 24.46875 64.65625 21.28125 53.65625 
Q 18.109375 42.671875 18.109375 31.390625 
Q 18.109375 20.125 21.3125 9.0625 
Q 24.515625 -2 31 -13.1875 
L 23.1875 -13.1875 
Q 15.875 -1.703125 12.234375 9.375 
Q 8.59375 20.453125 8.59375 31.390625 
Q 8.59375 42.28125 12.203125 53.3125 
Q 15.828125 64.359375 23.1875 75.875 
z
" id="DejaVuSans-40"/>
     <path d="M 9.421875 54.6875 
L 18.40625 54.6875 
L 18.40625 0 
L 9.421875 0 
z
M 9.421875 75.984375 
L 18.40625 75.984375 
L 18.40625 64.59375 
L 9.421875 64.59375 
z
" id="DejaVuSans-105"/>
     <path d="M 8.015625 75.875 
L 15.828125 75.875 
Q 23.140625 64.359375 26.78125 53.3125 
Q 30.421875 42.28125 30.421875 31.390625 
Q 30.421875 20.453125 26.78125 9.375 
Q 23.140625 -1.703125 15.828125 -13.1875 
L 8.015625 -13.1875 
Q 14.5 -2 17.703125 9.0625 
Q 20.90625 20.125 20.90625 31.390625 
Q 20.90625 42.671875 17.703125 53.65625 
Q 14.5 64.65625 8.015625 75.875 
z
" id="DejaVuSans-41"/>
    </defs>
    <g transform="translate(241.860938 12)scale(0.12 -0.12)">
     <use xlink:href="#DejaVuSans-65"/>
     <use x="68.408203" xlink:href="#DejaVuSans-114"/>
     <use x="109.490234" xlink:href="#DejaVuSans-101"/>
     <use x="171.013672" xlink:href="#DejaVuSans-97"/>
     <use x="232.292969" xlink:href="#DejaVuSans-32"/>
     <use x="264.080078" xlink:href="#DejaVuSans-108"/>
     <use x="291.863281" xlink:href="#DejaVuSans-101"/>
     <use x="353.386719" xlink:href="#DejaVuSans-115"/>
     <use x="405.486328" xlink:href="#DejaVuSans-115"/>
     <use x="457.585938" xlink:href="#DejaVuSans-32"/>
     <use x="489.373047" xlink:href="#DejaVuSans-116"/>
     <use x="528.582031" xlink:href="#DejaVuSans-104"/>
     <use x="591.960938" xlink:href="#DejaVuSans-97"/>
     <use x="653.240234" xlink:href="#DejaVuSans-110"/>
     <use x="716.619141" xlink:href="#DejaVuSans-32"/>
     <use x="748.40625" xlink:href="#DejaVuSans-49"/>
     <use x="812.029297" xlink:href="#DejaVuSans-46"/>
     <use x="843.816406" xlink:href="#DejaVuSans-48"/>
     <use x="907.439453" xlink:href="#DejaVuSans-37"/>
     <use x="1002.458984" xlink:href="#DejaVuSans-32"/>
     <use x="1034.246094" xlink:href="#DejaVuSans-40"/>
     <use x="1073.259766" xlink:href="#DejaVuSans-116"/>
     <use x="1112.46875" xlink:href="#DejaVuSans-114"/>
     <use x="1153.582031" xlink:href="#DejaVuSans-97"/>
     <use x="1214.861328" xlink:href="#DejaVuSans-105"/>
     <use x="1242.644531" xlink:href="#DejaVuSans-110"/>
     <use x="1306.023438" xlink:href="#DejaVuSans-41"/>
    </g>
   </g>
  </g>
  <g id="axes_2">
   <g id="text_19">
    <!-- 56.0: volleyball -->
    <defs>
     <path d="M 11.71875 12.40625 
L 22.015625 12.40625 
L 22.015625 0 
L 11.71875 0 
z
M 11.71875 51.703125 
L 22.015625 51.703125 
L 22.015625 39.3125 
L 11.71875 39.3125 
z
" id="DejaVuSans-58"/>
     <path d="M 2.984375 54.6875 
L 12.5 54.6875 
L 29.59375 8.796875 
L 46.6875 54.6875 
L 56.203125 54.6875 
L 35.6875 0 
L 23.484375 0 
z
" id="DejaVuSans-118"/>
     <path d="M 30.609375 48.390625 
Q 23.390625 48.390625 19.1875 42.75 
Q 14.984375 37.109375 14.984375 27.296875 
Q 14.984375 17.484375 19.15625 11.84375 
Q 23.34375 6.203125 30.609375 6.203125 
Q 37.796875 6.203125 41.984375 11.859375 
Q 46.1875 17.53125 46.1875 27.296875 
Q 46.1875 37.015625 41.984375 42.703125 
Q 37.796875 48.390625 30.609375 48.390625 
z
M 30.609375 56 
Q 42.328125 56 49.015625 48.375 
Q 55.71875 40.765625 55.71875 27.296875 
Q 55.71875 13.875 49.015625 6.21875 
Q 42.328125 -1.421875 30.609375 -1.421875 
Q 18.84375 -1.421875 12.171875 6.21875 
Q 5.515625 13.875 5.515625 27.296875 
Q 5.515625 40.765625 12.171875 48.375 
Q 18.84375 56 30.609375 56 
z
" id="DejaVuSans-111"/>
     <path d="M 32.171875 -5.078125 
Q 28.375 -14.84375 24.75 -17.8125 
Q 21.140625 -20.796875 15.09375 -20.796875 
L 7.90625 -20.796875 
L 7.90625 -13.28125 
L 13.1875 -13.28125 
Q 16.890625 -13.28125 18.9375 -11.515625 
Q 21 -9.765625 23.484375 -3.21875 
L 25.09375 0.875 
L 2.984375 54.6875 
L 12.5 54.6875 
L 29.59375 11.921875 
L 46.6875 54.6875 
L 56.203125 54.6875 
z
" id="DejaVuSans-121"/>
     <path d="M 48.6875 27.296875 
Q 48.6875 37.203125 44.609375 42.84375 
Q 40.53125 48.484375 33.40625 48.484375 
Q 26.265625 48.484375 22.1875 42.84375 
Q 18.109375 37.203125 18.109375 27.296875 
Q 18.109375 17.390625 22.1875 11.75 
Q 26.265625 6.109375 33.40625 6.109375 
Q 40.53125 6.109375 44.609375 11.75 
Q 48.6875 17.390625 48.6875 27.296875 
z
M 18.109375 46.390625 
Q 20.953125 51.265625 25.265625 53.625 
Q 29.59375 56 35.59375 56 
Q 45.5625 56 51.78125 48.09375 
Q 58.015625 40.1875 58.015625 27.296875 
Q 58.015625 14.40625 51.78125 6.484375 
Q 45.5625 -1.421875 35.59375 -1.421875 
Q 29.59375 -1.421875 25.265625 0.953125 
Q 20.953125 3.328125 18.109375 8.203125 
L 18.109375 0 
L 9.078125 0 
L 9.078125 75.984375 
L 18.109375 75.984375 
z
" id="DejaVuSans-98"/>
    </defs>
    <g transform="translate(604.8 76.380156)scale(0.1 -0.1)">
     <use xlink:href="#DejaVuSans-53"/>
     <use x="63.623047" xlink:href="#DejaVuSans-54"/>
     <use x="127.246094" xlink:href="#DejaVuSans-46"/>
     <use x="159.033203" xlink:href="#DejaVuSans-48"/>
     <use x="222.65625" xlink:href="#DejaVuSans-58"/>
     <use x="256.347656" xlink:href="#DejaVuSans-32"/>
     <use x="288.134766" xlink:href="#DejaVuSans-118"/>
     <use x="347.314453" xlink:href="#DejaVuSans-111"/>
     <use x="408.496094" xlink:href="#DejaVuSans-108"/>
     <use x="436.279297" xlink:href="#DejaVuSans-108"/>
     <use x="464.0625" xlink:href="#DejaVuSans-101"/>
     <use x="525.585938" xlink:href="#DejaVuSans-121"/>
     <use x="584.765625" xlink:href="#DejaVuSans-98"/>
     <use x="648.242188" xlink:href="#DejaVuSans-97"/>
     <use x="709.521484" xlink:href="#DejaVuSans-108"/>
     <use x="737.304688" xlink:href="#DejaVuSans-108"/>
    </g>
    <!-- 29.0: basketball -->
    <defs>
     <path d="M 10.984375 1.515625 
L 10.984375 10.5 
Q 14.703125 8.734375 18.5 7.8125 
Q 22.3125 6.890625 25.984375 6.890625 
Q 35.75 6.890625 40.890625 13.453125 
Q 46.046875 20.015625 46.78125 33.40625 
Q 43.953125 29.203125 39.59375 26.953125 
Q 35.25 24.703125 29.984375 24.703125 
Q 19.046875 24.703125 12.671875 31.3125 
Q 6.296875 37.9375 6.296875 49.421875 
Q 6.296875 60.640625 12.9375 67.421875 
Q 19.578125 74.21875 30.609375 74.21875 
Q 43.265625 74.21875 49.921875 64.515625 
Q 56.59375 54.828125 56.59375 36.375 
Q 56.59375 19.140625 48.40625 8.859375 
Q 40.234375 -1.421875 26.421875 -1.421875 
Q 22.703125 -1.421875 18.890625 -0.6875 
Q 15.09375 0.046875 10.984375 1.515625 
z
M 30.609375 32.421875 
Q 37.25 32.421875 41.125 36.953125 
Q 45.015625 41.5 45.015625 49.421875 
Q 45.015625 57.28125 41.125 61.84375 
Q 37.25 66.40625 30.609375 66.40625 
Q 23.96875 66.40625 20.09375 61.84375 
Q 16.21875 57.28125 16.21875 49.421875 
Q 16.21875 41.5 20.09375 36.953125 
Q 23.96875 32.421875 30.609375 32.421875 
z
" id="DejaVuSans-57"/>
     <path d="M 9.078125 75.984375 
L 18.109375 75.984375 
L 18.109375 31.109375 
L 44.921875 54.6875 
L 56.390625 54.6875 
L 27.390625 29.109375 
L 57.625 0 
L 45.90625 0 
L 18.109375 26.703125 
L 18.109375 0 
L 9.078125 0 
z
" id="DejaVuSans-107"/>
    </defs>
    <g transform="translate(604.8 87.577969)scale(0.1 -0.1)">
     <use xlink:href="#DejaVuSans-50"/>
     <use x="63.623047" xlink:href="#DejaVuSans-57"/>
     <use x="127.246094" xlink:href="#DejaVuSans-46"/>
     <use x="159.033203" xlink:href="#DejaVuSans-48"/>
     <use x="222.65625" xlink:href="#DejaVuSans-58"/>
     <use x="256.347656" xlink:href="#DejaVuSans-32"/>
     <use x="288.134766" xlink:href="#DejaVuSans-98"/>
     <use x="351.611328" xlink:href="#DejaVuSans-97"/>
     <use x="412.890625" xlink:href="#DejaVuSans-115"/>
     <use x="464.990234" xlink:href="#DejaVuSans-107"/>
     <use x="522.853516" xlink:href="#DejaVuSans-101"/>
     <use x="584.376953" xlink:href="#DejaVuSans-116"/>
     <use x="623.585938" xlink:href="#DejaVuSans-98"/>
     <use x="687.0625" xlink:href="#DejaVuSans-97"/>
     <use x="748.341797" xlink:href="#DejaVuSans-108"/>
     <use x="776.125" xlink:href="#DejaVuSans-108"/>
    </g>
    <!-- 20.4: rugby ball -->
    <defs>
     <path d="M 8.5 21.578125 
L 8.5 54.6875 
L 17.484375 54.6875 
L 17.484375 21.921875 
Q 17.484375 14.15625 20.5 10.265625 
Q 23.53125 6.390625 29.59375 6.390625 
Q 36.859375 6.390625 41.078125 11.03125 
Q 45.3125 15.671875 45.3125 23.6875 
L 45.3125 54.6875 
L 54.296875 54.6875 
L 54.296875 0 
L 45.3125 0 
L 45.3125 8.40625 
Q 42.046875 3.421875 37.71875 1 
Q 33.40625 -1.421875 27.6875 -1.421875 
Q 18.265625 -1.421875 13.375 4.4375 
Q 8.5 10.296875 8.5 21.578125 
z
M 31.109375 56 
z
" id="DejaVuSans-117"/>
     <path d="M 45.40625 27.984375 
Q 45.40625 37.75 41.375 43.109375 
Q 37.359375 48.484375 30.078125 48.484375 
Q 22.859375 48.484375 18.828125 43.109375 
Q 14.796875 37.75 14.796875 27.984375 
Q 14.796875 18.265625 18.828125 12.890625 
Q 22.859375 7.515625 30.078125 7.515625 
Q 37.359375 7.515625 41.375 12.890625 
Q 45.40625 18.265625 45.40625 27.984375 
z
M 54.390625 6.78125 
Q 54.390625 -7.171875 48.1875 -13.984375 
Q 42 -20.796875 29.203125 -20.796875 
Q 24.46875 -20.796875 20.265625 -20.09375 
Q 16.0625 -19.390625 12.109375 -17.921875 
L 12.109375 -9.1875 
Q 16.0625 -11.328125 19.921875 -12.34375 
Q 23.78125 -13.375 27.78125 -13.375 
Q 36.625 -13.375 41.015625 -8.765625 
Q 45.40625 -4.15625 45.40625 5.171875 
L 45.40625 9.625 
Q 42.625 4.78125 38.28125 2.390625 
Q 33.9375 0 27.875 0 
Q 17.828125 0 11.671875 7.65625 
Q 5.515625 15.328125 5.515625 27.984375 
Q 5.515625 40.671875 11.671875 48.328125 
Q 17.828125 56 27.875 56 
Q 33.9375 56 38.28125 53.609375 
Q 42.625 51.21875 45.40625 46.390625 
L 45.40625 54.6875 
L 54.390625 54.6875 
z
" id="DejaVuSans-103"/>
    </defs>
    <g transform="translate(604.8 98.775781)scale(0.1 -0.1)">
     <use xlink:href="#DejaVuSans-50"/>
     <use x="63.623047" xlink:href="#DejaVuSans-48"/>
     <use x="127.246094" xlink:href="#DejaVuSans-46"/>
     <use x="159.033203" xlink:href="#DejaVuSans-52"/>
     <use x="222.65625" xlink:href="#DejaVuSans-58"/>
     <use x="256.347656" xlink:href="#DejaVuSans-32"/>
     <use x="288.134766" xlink:href="#DejaVuSans-114"/>
     <use x="329.248047" xlink:href="#DejaVuSans-117"/>
     <use x="392.626953" xlink:href="#DejaVuSans-103"/>
     <use x="456.103516" xlink:href="#DejaVuSans-98"/>
     <use x="519.580078" xlink:href="#DejaVuSans-121"/>
     <use x="578.759766" xlink:href="#DejaVuSans-32"/>
     <use x="610.546875" xlink:href="#DejaVuSans-98"/>
     <use x="674.023438" xlink:href="#DejaVuSans-97"/>
     <use x="735.302734" xlink:href="#DejaVuSans-108"/>
     <use x="763.085938" xlink:href="#DejaVuSans-108"/>
    </g>
    <!-- 18.2: bow tie, bow-tie, bowtie -->
    <defs>
     <path d="M 31.78125 34.625 
Q 24.75 34.625 20.71875 30.859375 
Q 16.703125 27.09375 16.703125 20.515625 
Q 16.703125 13.921875 20.71875 10.15625 
Q 24.75 6.390625 31.78125 6.390625 
Q 38.8125 6.390625 42.859375 10.171875 
Q 46.921875 13.96875 46.921875 20.515625 
Q 46.921875 27.09375 42.890625 30.859375 
Q 38.875 34.625 31.78125 34.625 
z
M 21.921875 38.8125 
Q 15.578125 40.375 12.03125 44.71875 
Q 8.5 49.078125 8.5 55.328125 
Q 8.5 64.0625 14.71875 69.140625 
Q 20.953125 74.21875 31.78125 74.21875 
Q 42.671875 74.21875 48.875 69.140625 
Q 55.078125 64.0625 55.078125 55.328125 
Q 55.078125 49.078125 51.53125 44.71875 
Q 48 40.375 41.703125 38.8125 
Q 48.828125 37.15625 52.796875 32.3125 
Q 56.78125 27.484375 56.78125 20.515625 
Q 56.78125 9.90625 50.3125 4.234375 
Q 43.84375 -1.421875 31.78125 -1.421875 
Q 19.734375 -1.421875 13.25 4.234375 
Q 6.78125 9.90625 6.78125 20.515625 
Q 6.78125 27.484375 10.78125 32.3125 
Q 14.796875 37.15625 21.921875 38.8125 
z
M 18.3125 54.390625 
Q 18.3125 48.734375 21.84375 45.5625 
Q 25.390625 42.390625 31.78125 42.390625 
Q 38.140625 42.390625 41.71875 45.5625 
Q 45.3125 48.734375 45.3125 54.390625 
Q 45.3125 60.0625 41.71875 63.234375 
Q 38.140625 66.40625 31.78125 66.40625 
Q 25.390625 66.40625 21.84375 63.234375 
Q 18.3125 60.0625 18.3125 54.390625 
z
" id="DejaVuSans-56"/>
     <path d="M 4.203125 54.6875 
L 13.1875 54.6875 
L 24.421875 12.015625 
L 35.59375 54.6875 
L 46.1875 54.6875 
L 57.421875 12.015625 
L 68.609375 54.6875 
L 77.59375 54.6875 
L 63.28125 0 
L 52.6875 0 
L 40.921875 44.828125 
L 29.109375 0 
L 18.5 0 
z
" id="DejaVuSans-119"/>
     <path d="M 11.71875 12.40625 
L 22.015625 12.40625 
L 22.015625 4 
L 14.015625 -11.625 
L 7.71875 -11.625 
L 11.71875 4 
z
" id="DejaVuSans-44"/>
     <path d="M 4.890625 31.390625 
L 31.203125 31.390625 
L 31.203125 23.390625 
L 4.890625 23.390625 
z
" id="DejaVuSans-45"/>
    </defs>
    <g transform="translate(604.8 109.973594)scale(0.1 -0.1)">
     <use xlink:href="#DejaVuSans-49"/>
     <use x="63.623047" xlink:href="#DejaVuSans-56"/>
     <use x="127.246094" xlink:href="#DejaVuSans-46"/>
     <use x="159.033203" xlink:href="#DejaVuSans-50"/>
     <use x="222.65625" xlink:href="#DejaVuSans-58"/>
     <use x="256.347656" xlink:href="#DejaVuSans-32"/>
     <use x="288.134766" xlink:href="#DejaVuSans-98"/>
     <use x="351.611328" xlink:href="#DejaVuSans-111"/>
     <use x="412.792969" xlink:href="#DejaVuSans-119"/>
     <use x="494.580078" xlink:href="#DejaVuSans-32"/>
     <use x="526.367188" xlink:href="#DejaVuSans-116"/>
     <use x="565.576172" xlink:href="#DejaVuSans-105"/>
     <use x="593.359375" xlink:href="#DejaVuSans-101"/>
     <use x="654.882812" xlink:href="#DejaVuSans-44"/>
     <use x="686.669922" xlink:href="#DejaVuSans-32"/>
     <use x="718.457031" xlink:href="#DejaVuSans-98"/>
     <use x="781.933594" xlink:href="#DejaVuSans-111"/>
     <use x="843.115234" xlink:href="#DejaVuSans-119"/>
     <use x="924.902344" xlink:href="#DejaVuSans-45"/>
     <use x="960.986328" xlink:href="#DejaVuSans-116"/>
     <use x="1000.195312" xlink:href="#DejaVuSans-105"/>
     <use x="1027.978516" xlink:href="#DejaVuSans-101"/>
     <use x="1089.501953" xlink:href="#DejaVuSans-44"/>
     <use x="1121.289062" xlink:href="#DejaVuSans-32"/>
     <use x="1153.076172" xlink:href="#DejaVuSans-98"/>
     <use x="1216.552734" xlink:href="#DejaVuSans-111"/>
     <use x="1277.734375" xlink:href="#DejaVuSans-119"/>
     <use x="1359.521484" xlink:href="#DejaVuSans-116"/>
     <use x="1398.730469" xlink:href="#DejaVuSans-105"/>
     <use x="1426.513672" xlink:href="#DejaVuSans-101"/>
    </g>
    <!-- 13.0: candle, taper, wax light -->
    <defs>
     <path d="M 48.78125 52.59375 
L 48.78125 44.1875 
Q 44.96875 46.296875 41.140625 47.34375 
Q 37.3125 48.390625 33.40625 48.390625 
Q 24.65625 48.390625 19.8125 42.84375 
Q 14.984375 37.3125 14.984375 27.296875 
Q 14.984375 17.28125 19.8125 11.734375 
Q 24.65625 6.203125 33.40625 6.203125 
Q 37.3125 6.203125 41.140625 7.25 
Q 44.96875 8.296875 48.78125 10.40625 
L 48.78125 2.09375 
Q 45.015625 0.34375 40.984375 -0.53125 
Q 36.96875 -1.421875 32.421875 -1.421875 
Q 20.0625 -1.421875 12.78125 6.34375 
Q 5.515625 14.109375 5.515625 27.296875 
Q 5.515625 40.671875 12.859375 48.328125 
Q 20.21875 56 33.015625 56 
Q 37.15625 56 41.109375 55.140625 
Q 45.0625 54.296875 48.78125 52.59375 
z
" id="DejaVuSans-99"/>
     <path d="M 45.40625 46.390625 
L 45.40625 75.984375 
L 54.390625 75.984375 
L 54.390625 0 
L 45.40625 0 
L 45.40625 8.203125 
Q 42.578125 3.328125 38.25 0.953125 
Q 33.9375 -1.421875 27.875 -1.421875 
Q 17.96875 -1.421875 11.734375 6.484375 
Q 5.515625 14.40625 5.515625 27.296875 
Q 5.515625 40.1875 11.734375 48.09375 
Q 17.96875 56 27.875 56 
Q 33.9375 56 38.25 53.625 
Q 42.578125 51.265625 45.40625 46.390625 
z
M 14.796875 27.296875 
Q 14.796875 17.390625 18.875 11.75 
Q 22.953125 6.109375 30.078125 6.109375 
Q 37.203125 6.109375 41.296875 11.75 
Q 45.40625 17.390625 45.40625 27.296875 
Q 45.40625 37.203125 41.296875 42.84375 
Q 37.203125 48.484375 30.078125 48.484375 
Q 22.953125 48.484375 18.875 42.84375 
Q 14.796875 37.203125 14.796875 27.296875 
z
" id="DejaVuSans-100"/>
     <path d="M 18.109375 8.203125 
L 18.109375 -20.796875 
L 9.078125 -20.796875 
L 9.078125 54.6875 
L 18.109375 54.6875 
L 18.109375 46.390625 
Q 20.953125 51.265625 25.265625 53.625 
Q 29.59375 56 35.59375 56 
Q 45.5625 56 51.78125 48.09375 
Q 58.015625 40.1875 58.015625 27.296875 
Q 58.015625 14.40625 51.78125 6.484375 
Q 45.5625 -1.421875 35.59375 -1.421875 
Q 29.59375 -1.421875 25.265625 0.953125 
Q 20.953125 3.328125 18.109375 8.203125 
z
M 48.6875 27.296875 
Q 48.6875 37.203125 44.609375 42.84375 
Q 40.53125 48.484375 33.40625 48.484375 
Q 26.265625 48.484375 22.1875 42.84375 
Q 18.109375 37.203125 18.109375 27.296875 
Q 18.109375 17.390625 22.1875 11.75 
Q 26.265625 6.109375 33.40625 6.109375 
Q 40.53125 6.109375 44.609375 11.75 
Q 48.6875 17.390625 48.6875 27.296875 
z
" id="DejaVuSans-112"/>
     <path d="M 54.890625 54.6875 
L 35.109375 28.078125 
L 55.90625 0 
L 45.3125 0 
L 29.390625 21.484375 
L 13.484375 0 
L 2.875 0 
L 24.125 28.609375 
L 4.6875 54.6875 
L 15.28125 54.6875 
L 29.78125 35.203125 
L 44.28125 54.6875 
z
" id="DejaVuSans-120"/>
    </defs>
    <g transform="translate(604.8 121.171406)scale(0.1 -0.1)">
     <use xlink:href="#DejaVuSans-49"/>
     <use x="63.623047" xlink:href="#DejaVuSans-51"/>
     <use x="127.246094" xlink:href="#DejaVuSans-46"/>
     <use x="159.033203" xlink:href="#DejaVuSans-48"/>
     <use x="222.65625" xlink:href="#DejaVuSans-58"/>
     <use x="256.347656" xlink:href="#DejaVuSans-32"/>
     <use x="288.134766" xlink:href="#DejaVuSans-99"/>
     <use x="343.115234" xlink:href="#DejaVuSans-97"/>
     <use x="404.394531" xlink:href="#DejaVuSans-110"/>
     <use x="467.773438" xlink:href="#DejaVuSans-100"/>
     <use x="531.25" xlink:href="#DejaVuSans-108"/>
     <use x="559.033203" xlink:href="#DejaVuSans-101"/>
     <use x="620.556641" xlink:href="#DejaVuSans-44"/>
     <use x="652.34375" xlink:href="#DejaVuSans-32"/>
     <use x="684.130859" xlink:href="#DejaVuSans-116"/>
     <use x="723.339844" xlink:href="#DejaVuSans-97"/>
     <use x="784.619141" xlink:href="#DejaVuSans-112"/>
     <use x="848.095703" xlink:href="#DejaVuSans-101"/>
     <use x="909.619141" xlink:href="#DejaVuSans-114"/>
     <use x="950.732422" xlink:href="#DejaVuSans-44"/>
     <use x="982.519531" xlink:href="#DejaVuSans-32"/>
     <use x="1014.306641" xlink:href="#DejaVuSans-119"/>
     <use x="1096.09375" xlink:href="#DejaVuSans-97"/>
     <use x="1157.373047" xlink:href="#DejaVuSans-120"/>
     <use x="1216.552734" xlink:href="#DejaVuSans-32"/>
     <use x="1248.339844" xlink:href="#DejaVuSans-108"/>
     <use x="1276.123047" xlink:href="#DejaVuSans-105"/>
     <use x="1303.90625" xlink:href="#DejaVuSans-103"/>
     <use x="1367.382812" xlink:href="#DejaVuSans-104"/>
     <use x="1430.761719" xlink:href="#DejaVuSans-116"/>
    </g>
    <!-- 12.8: ice lolly, lolly, lollipop, popsicle -->
    <g transform="translate(604.8 132.369219)scale(0.1 -0.1)">
     <use xlink:href="#DejaVuSans-49"/>
     <use x="63.623047" xlink:href="#DejaVuSans-50"/>
     <use x="127.246094" xlink:href="#DejaVuSans-46"/>
     <use x="159.033203" xlink:href="#DejaVuSans-56"/>
     <use x="222.65625" xlink:href="#DejaVuSans-58"/>
     <use x="256.347656" xlink:href="#DejaVuSans-32"/>
     <use x="288.134766" xlink:href="#DejaVuSans-105"/>
     <use x="315.917969" xlink:href="#DejaVuSans-99"/>
     <use x="370.898438" xlink:href="#DejaVuSans-101"/>
     <use x="432.421875" xlink:href="#DejaVuSans-32"/>
     <use x="464.208984" xlink:href="#DejaVuSans-108"/>
     <use x="491.992188" xlink:href="#DejaVuSans-111"/>
     <use x="553.173828" xlink:href="#DejaVuSans-108"/>
     <use x="580.957031" xlink:href="#DejaVuSans-108"/>
     <use x="608.740234" xlink:href="#DejaVuSans-121"/>
     <use x="667.919922" xlink:href="#DejaVuSans-44"/>
     <use x="699.707031" xlink:href="#DejaVuSans-32"/>
     <use x="731.494141" xlink:href="#DejaVuSans-108"/>
     <use x="759.277344" xlink:href="#DejaVuSans-111"/>
     <use x="820.458984" xlink:href="#DejaVuSans-108"/>
     <use x="848.242188" xlink:href="#DejaVuSans-108"/>
     <use x="876.025391" xlink:href="#DejaVuSans-121"/>
     <use x="935.205078" xlink:href="#DejaVuSans-44"/>
     <use x="966.992188" xlink:href="#DejaVuSans-32"/>
     <use x="998.779297" xlink:href="#DejaVuSans-108"/>
     <use x="1026.5625" xlink:href="#DejaVuSans-111"/>
     <use x="1087.744141" xlink:href="#DejaVuSans-108"/>
     <use x="1115.527344" xlink:href="#DejaVuSans-108"/>
     <use x="1143.310547" xlink:href="#DejaVuSans-105"/>
     <use x="1171.09375" xlink:href="#DejaVuSans-112"/>
     <use x="1234.570312" xlink:href="#DejaVuSans-111"/>
     <use x="1295.751953" xlink:href="#DejaVuSans-112"/>
     <use x="1359.228516" xlink:href="#DejaVuSans-44"/>
     <use x="1391.015625" xlink:href="#DejaVuSans-32"/>
     <use x="1422.802734" xlink:href="#DejaVuSans-112"/>
     <use x="1486.279297" xlink:href="#DejaVuSans-111"/>
     <use x="1547.460938" xlink:href="#DejaVuSans-112"/>
     <use x="1610.9375" xlink:href="#DejaVuSans-115"/>
     <use x="1663.037109" xlink:href="#DejaVuSans-105"/>
     <use x="1690.820312" xlink:href="#DejaVuSans-99"/>
     <use x="1745.800781" xlink:href="#DejaVuSans-108"/>
     <use x="1773.583984" xlink:href="#DejaVuSans-101"/>
    </g>
    <!-- 12.4: snorkel -->
    <g transform="translate(604.8 143.567031)scale(0.1 -0.1)">
     <use xlink:href="#DejaVuSans-49"/>
     <use x="63.623047" xlink:href="#DejaVuSans-50"/>
     <use x="127.246094" xlink:href="#DejaVuSans-46"/>
     <use x="159.033203" xlink:href="#DejaVuSans-52"/>
     <use x="222.65625" xlink:href="#DejaVuSans-58"/>
     <use x="256.347656" xlink:href="#DejaVuSans-32"/>
     <use x="288.134766" xlink:href="#DejaVuSans-115"/>
     <use x="340.234375" xlink:href="#DejaVuSans-110"/>
     <use x="403.613281" xlink:href="#DejaVuSans-111"/>
     <use x="464.794922" xlink:href="#DejaVuSans-114"/>
     <use x="505.908203" xlink:href="#DejaVuSans-107"/>
     <use x="563.771484" xlink:href="#DejaVuSans-101"/>
     <use x="625.294922" xlink:href="#DejaVuSans-108"/>
    </g>
    <!-- 9.6: reel -->
    <g transform="translate(604.8 154.764844)scale(0.1 -0.1)">
     <use xlink:href="#DejaVuSans-57"/>
     <use x="63.623047" xlink:href="#DejaVuSans-46"/>
     <use x="95.410156" xlink:href="#DejaVuSans-54"/>
     <use x="159.033203" xlink:href="#DejaVuSans-58"/>
     <use x="192.724609" xlink:href="#DejaVuSans-32"/>
     <use x="224.511719" xlink:href="#DejaVuSans-114"/>
     <use x="265.59375" xlink:href="#DejaVuSans-101"/>
     <use x="327.117188" xlink:href="#DejaVuSans-101"/>
     <use x="388.640625" xlink:href="#DejaVuSans-108"/>
    </g>
    <!-- 7.2: dumbbell -->
    <defs>
     <path d="M 52 44.1875 
Q 55.375 50.25 60.0625 53.125 
Q 64.75 56 71.09375 56 
Q 79.640625 56 84.28125 50.015625 
Q 88.921875 44.046875 88.921875 33.015625 
L 88.921875 0 
L 79.890625 0 
L 79.890625 32.71875 
Q 79.890625 40.578125 77.09375 44.375 
Q 74.3125 48.1875 68.609375 48.1875 
Q 61.625 48.1875 57.5625 43.546875 
Q 53.515625 38.921875 53.515625 30.90625 
L 53.515625 0 
L 44.484375 0 
L 44.484375 32.71875 
Q 44.484375 40.625 41.703125 44.40625 
Q 38.921875 48.1875 33.109375 48.1875 
Q 26.21875 48.1875 22.15625 43.53125 
Q 18.109375 38.875 18.109375 30.90625 
L 18.109375 0 
L 9.078125 0 
L 9.078125 54.6875 
L 18.109375 54.6875 
L 18.109375 46.1875 
Q 21.1875 51.21875 25.484375 53.609375 
Q 29.78125 56 35.6875 56 
Q 41.65625 56 45.828125 52.96875 
Q 50 49.953125 52 44.1875 
z
" id="DejaVuSans-109"/>
    </defs>
    <g transform="translate(604.8 165.962656)scale(0.1 -0.1)">
     <use xlink:href="#DejaVuSans-55"/>
     <use x="63.623047" xlink:href="#DejaVuSans-46"/>
     <use x="95.410156" xlink:href="#DejaVuSans-50"/>
     <use x="159.033203" xlink:href="#DejaVuSans-58"/>
     <use x="192.724609" xlink:href="#DejaVuSans-32"/>
     <use x="224.511719" xlink:href="#DejaVuSans-100"/>
     <use x="287.988281" xlink:href="#DejaVuSans-117"/>
     <use x="351.367188" xlink:href="#DejaVuSans-109"/>
     <use x="448.779297" xlink:href="#DejaVuSans-98"/>
     <use x="512.255859" xlink:href="#DejaVuSans-98"/>
     <use x="575.732422" xlink:href="#DejaVuSans-101"/>
     <use x="637.255859" xlink:href="#DejaVuSans-108"/>
     <use x="665.039062" xlink:href="#DejaVuSans-108"/>
    </g>
    <!-- 6.0: swimming trunks, bathing trunks -->
    <g transform="translate(604.8 177.160469)scale(0.1 -0.1)">
     <use xlink:href="#DejaVuSans-54"/>
     <use x="63.623047" xlink:href="#DejaVuSans-46"/>
     <use x="95.410156" xlink:href="#DejaVuSans-48"/>
     <use x="159.033203" xlink:href="#DejaVuSans-58"/>
     <use x="192.724609" xlink:href="#DejaVuSans-32"/>
     <use x="224.511719" xlink:href="#DejaVuSans-115"/>
     <use x="276.611328" xlink:href="#DejaVuSans-119"/>
     <use x="358.398438" xlink:href="#DejaVuSans-105"/>
     <use x="386.181641" xlink:href="#DejaVuSans-109"/>
     <use x="483.59375" xlink:href="#DejaVuSans-109"/>
     <use x="581.005859" xlink:href="#DejaVuSans-105"/>
     <use x="608.789062" xlink:href="#DejaVuSans-110"/>
     <use x="672.167969" xlink:href="#DejaVuSans-103"/>
     <use x="735.644531" xlink:href="#DejaVuSans-32"/>
     <use x="767.431641" xlink:href="#DejaVuSans-116"/>
     <use x="806.640625" xlink:href="#DejaVuSans-114"/>
     <use x="847.753906" xlink:href="#DejaVuSans-117"/>
     <use x="911.132812" xlink:href="#DejaVuSans-110"/>
     <use x="974.511719" xlink:href="#DejaVuSans-107"/>
     <use x="1032.421875" xlink:href="#DejaVuSans-115"/>
     <use x="1084.521484" xlink:href="#DejaVuSans-44"/>
     <use x="1116.308594" xlink:href="#DejaVuSans-32"/>
     <use x="1148.095703" xlink:href="#DejaVuSans-98"/>
     <use x="1211.572266" xlink:href="#DejaVuSans-97"/>
     <use x="1272.851562" xlink:href="#DejaVuSans-116"/>
     <use x="1312.060547" xlink:href="#DejaVuSans-104"/>
     <use x="1375.439453" xlink:href="#DejaVuSans-105"/>
     <use x="1403.222656" xlink:href="#DejaVuSans-110"/>
     <use x="1466.601562" xlink:href="#DejaVuSans-103"/>
     <use x="1530.078125" xlink:href="#DejaVuSans-32"/>
     <use x="1561.865234" xlink:href="#DejaVuSans-116"/>
     <use x="1601.074219" xlink:href="#DejaVuSans-114"/>
     <use x="1642.1875" xlink:href="#DejaVuSans-117"/>
     <use x="1705.566406" xlink:href="#DejaVuSans-110"/>
     <use x="1768.945312" xlink:href="#DejaVuSans-107"/>
     <use x="1826.855469" xlink:href="#DejaVuSans-115"/>
    </g>
    <!-- 6.0: binoculars, field glasses, opera glasses -->
    <defs>
     <path d="M 37.109375 75.984375 
L 37.109375 68.5 
L 28.515625 68.5 
Q 23.6875 68.5 21.796875 66.546875 
Q 19.921875 64.59375 19.921875 59.515625 
L 19.921875 54.6875 
L 34.71875 54.6875 
L 34.71875 47.703125 
L 19.921875 47.703125 
L 19.921875 0 
L 10.890625 0 
L 10.890625 47.703125 
L 2.296875 47.703125 
L 2.296875 54.6875 
L 10.890625 54.6875 
L 10.890625 58.5 
Q 10.890625 67.625 15.140625 71.796875 
Q 19.390625 75.984375 28.609375 75.984375 
z
" id="DejaVuSans-102"/>
    </defs>
    <g transform="translate(604.8 188.358281)scale(0.1 -0.1)">
     <use xlink:href="#DejaVuSans-54"/>
     <use x="63.623047" xlink:href="#DejaVuSans-46"/>
     <use x="95.410156" xlink:href="#DejaVuSans-48"/>
     <use x="159.033203" xlink:href="#DejaVuSans-58"/>
     <use x="192.724609" xlink:href="#DejaVuSans-32"/>
     <use x="224.511719" xlink:href="#DejaVuSans-98"/>
     <use x="287.988281" xlink:href="#DejaVuSans-105"/>
     <use x="315.771484" xlink:href="#DejaVuSans-110"/>
     <use x="379.150391" xlink:href="#DejaVuSans-111"/>
     <use x="440.332031" xlink:href="#DejaVuSans-99"/>
     <use x="495.3125" xlink:href="#DejaVuSans-117"/>
     <use x="558.691406" xlink:href="#DejaVuSans-108"/>
     <use x="586.474609" xlink:href="#DejaVuSans-97"/>
     <use x="647.753906" xlink:href="#DejaVuSans-114"/>
     <use x="688.867188" xlink:href="#DejaVuSans-115"/>
     <use x="740.966797" xlink:href="#DejaVuSans-44"/>
     <use x="772.753906" xlink:href="#DejaVuSans-32"/>
     <use x="804.541016" xlink:href="#DejaVuSans-102"/>
     <use x="839.746094" xlink:href="#DejaVuSans-105"/>
     <use x="867.529297" xlink:href="#DejaVuSans-101"/>
     <use x="929.052734" xlink:href="#DejaVuSans-108"/>
     <use x="956.835938" xlink:href="#DejaVuSans-100"/>
     <use x="1020.3125" xlink:href="#DejaVuSans-32"/>
     <use x="1052.099609" xlink:href="#DejaVuSans-103"/>
     <use x="1115.576172" xlink:href="#DejaVuSans-108"/>
     <use x="1143.359375" xlink:href="#DejaVuSans-97"/>
     <use x="1204.638672" xlink:href="#DejaVuSans-115"/>
     <use x="1256.738281" xlink:href="#DejaVuSans-115"/>
     <use x="1308.837891" xlink:href="#DejaVuSans-101"/>
     <use x="1370.361328" xlink:href="#DejaVuSans-115"/>
     <use x="1422.460938" xlink:href="#DejaVuSans-44"/>
     <use x="1454.248047" xlink:href="#DejaVuSans-32"/>
     <use x="1486.035156" xlink:href="#DejaVuSans-111"/>
     <use x="1547.216797" xlink:href="#DejaVuSans-112"/>
     <use x="1610.693359" xlink:href="#DejaVuSans-101"/>
     <use x="1672.216797" xlink:href="#DejaVuSans-114"/>
     <use x="1713.330078" xlink:href="#DejaVuSans-97"/>
     <use x="1774.609375" xlink:href="#DejaVuSans-32"/>
     <use x="1806.396484" xlink:href="#DejaVuSans-103"/>
     <use x="1869.873047" xlink:href="#DejaVuSans-108"/>
     <use x="1897.65625" xlink:href="#DejaVuSans-97"/>
     <use x="1958.935547" xlink:href="#DejaVuSans-115"/>
     <use x="2011.035156" xlink:href="#DejaVuSans-115"/>
     <use x="2063.134766" xlink:href="#DejaVuSans-101"/>
     <use x="2124.658203" xlink:href="#DejaVuSans-115"/>
    </g>
    <!-- 5.8: sunglasses, dark glasses, shades -->
    <g transform="translate(604.8 199.556094)scale(0.1 -0.1)">
     <use xlink:href="#DejaVuSans-53"/>
     <use x="63.623047" xlink:href="#DejaVuSans-46"/>
     <use x="95.410156" xlink:href="#DejaVuSans-56"/>
     <use x="159.033203" xlink:href="#DejaVuSans-58"/>
     <use x="192.724609" xlink:href="#DejaVuSans-32"/>
     <use x="224.511719" xlink:href="#DejaVuSans-115"/>
     <use x="276.611328" xlink:href="#DejaVuSans-117"/>
     <use x="339.990234" xlink:href="#DejaVuSans-110"/>
     <use x="403.369141" xlink:href="#DejaVuSans-103"/>
     <use x="466.845703" xlink:href="#DejaVuSans-108"/>
     <use x="494.628906" xlink:href="#DejaVuSans-97"/>
     <use x="555.908203" xlink:href="#DejaVuSans-115"/>
     <use x="608.007812" xlink:href="#DejaVuSans-115"/>
     <use x="660.107422" xlink:href="#DejaVuSans-101"/>
     <use x="721.630859" xlink:href="#DejaVuSans-115"/>
     <use x="773.730469" xlink:href="#DejaVuSans-44"/>
     <use x="805.517578" xlink:href="#DejaVuSans-32"/>
     <use x="837.304688" xlink:href="#DejaVuSans-100"/>
     <use x="900.78125" xlink:href="#DejaVuSans-97"/>
     <use x="962.060547" xlink:href="#DejaVuSans-114"/>
     <use x="1003.173828" xlink:href="#DejaVuSans-107"/>
     <use x="1061.083984" xlink:href="#DejaVuSans-32"/>
     <use x="1092.871094" xlink:href="#DejaVuSans-103"/>
     <use x="1156.347656" xlink:href="#DejaVuSans-108"/>
     <use x="1184.130859" xlink:href="#DejaVuSans-97"/>
     <use x="1245.410156" xlink:href="#DejaVuSans-115"/>
     <use x="1297.509766" xlink:href="#DejaVuSans-115"/>
     <use x="1349.609375" xlink:href="#DejaVuSans-101"/>
     <use x="1411.132812" xlink:href="#DejaVuSans-115"/>
     <use x="1463.232422" xlink:href="#DejaVuSans-44"/>
     <use x="1495.019531" xlink:href="#DejaVuSans-32"/>
     <use x="1526.806641" xlink:href="#DejaVuSans-115"/>
     <use x="1578.90625" xlink:href="#DejaVuSans-104"/>
     <use x="1642.285156" xlink:href="#DejaVuSans-97"/>
     <use x="1703.564453" xlink:href="#DejaVuSans-100"/>
     <use x="1767.041016" xlink:href="#DejaVuSans-101"/>
     <use x="1828.564453" xlink:href="#DejaVuSans-115"/>
    </g>
    <!-- 5.8: drumstick -->
    <g transform="translate(604.8 210.753906)scale(0.1 -0.1)">
     <use xlink:href="#DejaVuSans-53"/>
     <use x="63.623047" xlink:href="#DejaVuSans-46"/>
     <use x="95.410156" xlink:href="#DejaVuSans-56"/>
     <use x="159.033203" xlink:href="#DejaVuSans-58"/>
     <use x="192.724609" xlink:href="#DejaVuSans-32"/>
     <use x="224.511719" xlink:href="#DejaVuSans-100"/>
     <use x="287.988281" xlink:href="#DejaVuSans-114"/>
     <use x="329.101562" xlink:href="#DejaVuSans-117"/>
     <use x="392.480469" xlink:href="#DejaVuSans-109"/>
     <use x="489.892578" xlink:href="#DejaVuSans-115"/>
     <use x="541.992188" xlink:href="#DejaVuSans-116"/>
     <use x="581.201172" xlink:href="#DejaVuSans-105"/>
     <use x="608.984375" xlink:href="#DejaVuSans-99"/>
     <use x="663.964844" xlink:href="#DejaVuSans-107"/>
    </g>
    <!-- 4.8: nail -->
    <g transform="translate(604.8 221.951719)scale(0.1 -0.1)">
     <use xlink:href="#DejaVuSans-52"/>
     <use x="63.623047" xlink:href="#DejaVuSans-46"/>
     <use x="95.410156" xlink:href="#DejaVuSans-56"/>
     <use x="159.033203" xlink:href="#DejaVuSans-58"/>
     <use x="192.724609" xlink:href="#DejaVuSans-32"/>
     <use x="224.511719" xlink:href="#DejaVuSans-110"/>
     <use x="287.890625" xlink:href="#DejaVuSans-97"/>
     <use x="349.169922" xlink:href="#DejaVuSans-105"/>
     <use x="376.953125" xlink:href="#DejaVuSans-108"/>
    </g>
    <!-- 4.8: altar -->
    <g transform="translate(604.8 233.149531)scale(0.1 -0.1)">
     <use xlink:href="#DejaVuSans-52"/>
     <use x="63.623047" xlink:href="#DejaVuSans-46"/>
     <use x="95.410156" xlink:href="#DejaVuSans-56"/>
     <use x="159.033203" xlink:href="#DejaVuSans-58"/>
     <use x="192.724609" xlink:href="#DejaVuSans-32"/>
     <use x="224.511719" xlink:href="#DejaVuSans-97"/>
     <use x="285.791016" xlink:href="#DejaVuSans-108"/>
     <use x="313.574219" xlink:href="#DejaVuSans-116"/>
     <use x="352.783203" xlink:href="#DejaVuSans-97"/>
     <use x="414.0625" xlink:href="#DejaVuSans-114"/>
    </g>
    <!-- 4.6: projectile, missile -->
    <defs>
     <path d="M 9.421875 54.6875 
L 18.40625 54.6875 
L 18.40625 -0.984375 
Q 18.40625 -11.421875 14.421875 -16.109375 
Q 10.453125 -20.796875 1.609375 -20.796875 
L -1.8125 -20.796875 
L -1.8125 -13.1875 
L 0.59375 -13.1875 
Q 5.71875 -13.1875 7.5625 -10.8125 
Q 9.421875 -8.453125 9.421875 -0.984375 
z
M 9.421875 75.984375 
L 18.40625 75.984375 
L 18.40625 64.59375 
L 9.421875 64.59375 
z
" id="DejaVuSans-106"/>
    </defs>
    <g transform="translate(604.8 244.347344)scale(0.1 -0.1)">
     <use xlink:href="#DejaVuSans-52"/>
     <use x="63.623047" xlink:href="#DejaVuSans-46"/>
     <use x="95.410156" xlink:href="#DejaVuSans-54"/>
     <use x="159.033203" xlink:href="#DejaVuSans-58"/>
     <use x="192.724609" xlink:href="#DejaVuSans-32"/>
     <use x="224.511719" xlink:href="#DejaVuSans-112"/>
     <use x="287.988281" xlink:href="#DejaVuSans-114"/>
     <use x="329.070312" xlink:href="#DejaVuSans-111"/>
     <use x="390.251953" xlink:href="#DejaVuSans-106"/>
     <use x="418.035156" xlink:href="#DejaVuSans-101"/>
     <use x="479.558594" xlink:href="#DejaVuSans-99"/>
     <use x="534.539062" xlink:href="#DejaVuSans-116"/>
     <use x="573.748047" xlink:href="#DejaVuSans-105"/>
     <use x="601.53125" xlink:href="#DejaVuSans-108"/>
     <use x="629.314453" xlink:href="#DejaVuSans-101"/>
     <use x="690.837891" xlink:href="#DejaVuSans-44"/>
     <use x="722.625" xlink:href="#DejaVuSans-32"/>
     <use x="754.412109" xlink:href="#DejaVuSans-109"/>
     <use x="851.824219" xlink:href="#DejaVuSans-105"/>
     <use x="879.607422" xlink:href="#DejaVuSans-115"/>
     <use x="931.707031" xlink:href="#DejaVuSans-115"/>
     <use x="983.806641" xlink:href="#DejaVuSans-105"/>
     <use x="1011.589844" xlink:href="#DejaVuSans-108"/>
     <use x="1039.373047" xlink:href="#DejaVuSans-101"/>
    </g>
    <!-- 4.4: flagpole, flagstaff -->
    <g transform="translate(604.8 255.545156)scale(0.1 -0.1)">
     <use xlink:href="#DejaVuSans-52"/>
     <use x="63.623047" xlink:href="#DejaVuSans-46"/>
     <use x="95.410156" xlink:href="#DejaVuSans-52"/>
     <use x="159.033203" xlink:href="#DejaVuSans-58"/>
     <use x="192.724609" xlink:href="#DejaVuSans-32"/>
     <use x="224.511719" xlink:href="#DejaVuSans-102"/>
     <use x="259.716797" xlink:href="#DejaVuSans-108"/>
     <use x="287.5" xlink:href="#DejaVuSans-97"/>
     <use x="348.779297" xlink:href="#DejaVuSans-103"/>
     <use x="412.255859" xlink:href="#DejaVuSans-112"/>
     <use x="475.732422" xlink:href="#DejaVuSans-111"/>
     <use x="536.914062" xlink:href="#DejaVuSans-108"/>
     <use x="564.697266" xlink:href="#DejaVuSans-101"/>
     <use x="626.220703" xlink:href="#DejaVuSans-44"/>
     <use x="658.007812" xlink:href="#DejaVuSans-32"/>
     <use x="689.794922" xlink:href="#DejaVuSans-102"/>
     <use x="725" xlink:href="#DejaVuSans-108"/>
     <use x="752.783203" xlink:href="#DejaVuSans-97"/>
     <use x="814.0625" xlink:href="#DejaVuSans-103"/>
     <use x="877.539062" xlink:href="#DejaVuSans-115"/>
     <use x="929.638672" xlink:href="#DejaVuSans-116"/>
     <use x="968.847656" xlink:href="#DejaVuSans-97"/>
     <use x="1030.126953" xlink:href="#DejaVuSans-102"/>
     <use x="1065.332031" xlink:href="#DejaVuSans-102"/>
    </g>
    <!-- 3.8: ladybug, ladybeetle, lady beetle, ladybird, ladybird beetle -->
    <g transform="translate(604.8 266.742969)scale(0.1 -0.1)">
     <use xlink:href="#DejaVuSans-51"/>
     <use x="63.623047" xlink:href="#DejaVuSans-46"/>
     <use x="95.410156" xlink:href="#DejaVuSans-56"/>
     <use x="159.033203" xlink:href="#DejaVuSans-58"/>
     <use x="192.724609" xlink:href="#DejaVuSans-32"/>
     <use x="224.511719" xlink:href="#DejaVuSans-108"/>
     <use x="252.294922" xlink:href="#DejaVuSans-97"/>
     <use x="313.574219" xlink:href="#DejaVuSans-100"/>
     <use x="377.050781" xlink:href="#DejaVuSans-121"/>
     <use x="436.230469" xlink:href="#DejaVuSans-98"/>
     <use x="499.707031" xlink:href="#DejaVuSans-117"/>
     <use x="563.085938" xlink:href="#DejaVuSans-103"/>
     <use x="626.5625" xlink:href="#DejaVuSans-44"/>
     <use x="658.349609" xlink:href="#DejaVuSans-32"/>
     <use x="690.136719" xlink:href="#DejaVuSans-108"/>
     <use x="717.919922" xlink:href="#DejaVuSans-97"/>
     <use x="779.199219" xlink:href="#DejaVuSans-100"/>
     <use x="842.675781" xlink:href="#DejaVuSans-121"/>
     <use x="901.855469" xlink:href="#DejaVuSans-98"/>
     <use x="965.332031" xlink:href="#DejaVuSans-101"/>
     <use x="1026.855469" xlink:href="#DejaVuSans-101"/>
     <use x="1088.378906" xlink:href="#DejaVuSans-116"/>
     <use x="1127.587891" xlink:href="#DejaVuSans-108"/>
     <use x="1155.371094" xlink:href="#DejaVuSans-101"/>
     <use x="1216.894531" xlink:href="#DejaVuSans-44"/>
     <use x="1248.681641" xlink:href="#DejaVuSans-32"/>
     <use x="1280.46875" xlink:href="#DejaVuSans-108"/>
     <use x="1308.251953" xlink:href="#DejaVuSans-97"/>
     <use x="1369.53125" xlink:href="#DejaVuSans-100"/>
     <use x="1433.007812" xlink:href="#DejaVuSans-121"/>
     <use x="1492.1875" xlink:href="#DejaVuSans-32"/>
     <use x="1523.974609" xlink:href="#DejaVuSans-98"/>
     <use x="1587.451172" xlink:href="#DejaVuSans-101"/>
     <use x="1648.974609" xlink:href="#DejaVuSans-101"/>
     <use x="1710.498047" xlink:href="#DejaVuSans-116"/>
     <use x="1749.707031" xlink:href="#DejaVuSans-108"/>
     <use x="1777.490234" xlink:href="#DejaVuSans-101"/>
     <use x="1839.013672" xlink:href="#DejaVuSans-44"/>
     <use x="1870.800781" xlink:href="#DejaVuSans-32"/>
     <use x="1902.587891" xlink:href="#DejaVuSans-108"/>
     <use x="1930.371094" xlink:href="#DejaVuSans-97"/>
     <use x="1991.650391" xlink:href="#DejaVuSans-100"/>
     <use x="2055.126953" xlink:href="#DejaVuSans-121"/>
     <use x="2114.306641" xlink:href="#DejaVuSans-98"/>
     <use x="2177.783203" xlink:href="#DejaVuSans-105"/>
     <use x="2205.566406" xlink:href="#DejaVuSans-114"/>
     <use x="2246.664062" xlink:href="#DejaVuSans-100"/>
     <use x="2310.140625" xlink:href="#DejaVuSans-44"/>
     <use x="2341.927734" xlink:href="#DejaVuSans-32"/>
     <use x="2373.714844" xlink:href="#DejaVuSans-108"/>
     <use x="2401.498047" xlink:href="#DejaVuSans-97"/>
     <use x="2462.777344" xlink:href="#DejaVuSans-100"/>
     <use x="2526.253906" xlink:href="#DejaVuSans-121"/>
     <use x="2585.433594" xlink:href="#DejaVuSans-98"/>
     <use x="2648.910156" xlink:href="#DejaVuSans-105"/>
     <use x="2676.693359" xlink:href="#DejaVuSans-114"/>
     <use x="2717.791016" xlink:href="#DejaVuSans-100"/>
     <use x="2781.267578" xlink:href="#DejaVuSans-32"/>
     <use x="2813.054688" xlink:href="#DejaVuSans-98"/>
     <use x="2876.53125" xlink:href="#DejaVuSans-101"/>
     <use x="2938.054688" xlink:href="#DejaVuSans-101"/>
     <use x="2999.578125" xlink:href="#DejaVuSans-116"/>
     <use x="3038.787109" xlink:href="#DejaVuSans-108"/>
     <use x="3066.570312" xlink:href="#DejaVuSans-101"/>
    </g>
    <!-- 3.6: coral reef -->
    <g transform="translate(604.8 277.940781)scale(0.1 -0.1)">
     <use xlink:href="#DejaVuSans-51"/>
     <use x="63.623047" xlink:href="#DejaVuSans-46"/>
     <use x="95.410156" xlink:href="#DejaVuSans-54"/>
     <use x="159.033203" xlink:href="#DejaVuSans-58"/>
     <use x="192.724609" xlink:href="#DejaVuSans-32"/>
     <use x="224.511719" xlink:href="#DejaVuSans-99"/>
     <use x="279.492188" xlink:href="#DejaVuSans-111"/>
     <use x="340.673828" xlink:href="#DejaVuSans-114"/>
     <use x="381.787109" xlink:href="#DejaVuSans-97"/>
     <use x="443.066406" xlink:href="#DejaVuSans-108"/>
     <use x="470.849609" xlink:href="#DejaVuSans-32"/>
     <use x="502.636719" xlink:href="#DejaVuSans-114"/>
     <use x="543.71875" xlink:href="#DejaVuSans-101"/>
     <use x="605.242188" xlink:href="#DejaVuSans-101"/>
     <use x="666.765625" xlink:href="#DejaVuSans-102"/>
    </g>
    <!-- 3.4: torch -->
    <g transform="translate(604.8 289.138594)scale(0.1 -0.1)">
     <use xlink:href="#DejaVuSans-51"/>
     <use x="63.623047" xlink:href="#DejaVuSans-46"/>
     <use x="95.410156" xlink:href="#DejaVuSans-52"/>
     <use x="159.033203" xlink:href="#DejaVuSans-58"/>
     <use x="192.724609" xlink:href="#DejaVuSans-32"/>
     <use x="224.511719" xlink:href="#DejaVuSans-116"/>
     <use x="263.720703" xlink:href="#DejaVuSans-111"/>
     <use x="324.902344" xlink:href="#DejaVuSans-114"/>
     <use x="365.984375" xlink:href="#DejaVuSans-99"/>
     <use x="420.964844" xlink:href="#DejaVuSans-104"/>
    </g>
   </g>
  </g>
 </g>
 <defs>
  <clipPath id="pbb9af6b304">
   <rect height="324" width="504" x="70.56" y="18"/>
  </clipPath>
 </defs>
</svg>
